<svg version="1.1" xmlns="http://www.w3.org/2000/svg" viewBox="0 0 987.589789120108 696.294117647059" width="987.589789120108" height="696.294117647059">
  <!-- svg-source:excalidraw -->
  
  <defs>
    <style class="style-fonts">
      @font-face {
        font-family: "Virgil";
        src: url("https://excalidraw.com/Virgil.woff2");
      }
      @font-face {
        font-family: "Cascadia";
        src: url("https://excalidraw.com/Cascadia.woff2");
      }
      @font-face {
        font-family: "Assistant";
        src: url("https://excalidraw.com/Assistant-Regular.woff2");
      }
    </style>
    
  </defs>
  <rect x="0" y="0" width="987.589789120108" height="696.294117647059" fill="#ffffff"></rect><g stroke-linecap="round" transform="translate(401.95260968931456 451.29411764705907) rotate(0 70.5 75.5)"><path d="M32 0 C50.88 -0.85, 69.13 -1.74, 109 0 M32 0 C61.99 -0.14, 93.08 0.75, 109 0 M109 0 C131.98 -0.81, 141.89 11.01, 141 32 M109 0 C129.58 0.13, 141.83 12.78, 141 32 M141 32 C141.29 65.63, 141.27 96.78, 141 119 M141 32 C140.87 50.17, 141.93 69.72, 141 119 M141 119 C140.49 139.9, 131.75 149.73, 109 151 M141 119 C141.68 139.84, 129.66 150.35, 109 151 M109 151 C91.43 152.15, 74.94 151.26, 32 151 M109 151 C85.55 149.8, 63.34 151.21, 32 151 M32 151 C10.95 149.71, -0.17 141.22, 0 119 M32 151 C12.65 149.06, 1.1 138.53, 0 119 M0 119 C1.24 90.81, 1.95 63.66, 0 32 M0 119 C-0.75 91.49, -0.01 66.72, 0 32 M0 32 C-1.59 12.28, 10.05 -1.85, 32 0 M0 32 C-0.58 9.93, 10.87 -1.21, 32 0" stroke="#1e1e1e" stroke-width="2" fill="none"></path></g><g stroke-linecap="round" transform="translate(212.95260968931456 342.29411764705907) rotate(0 268 172)"><path d="M32 0 C178.34 0.19, 322.75 -0.67, 504 0 M32 0 C136.88 -1.2, 242.55 -0.94, 504 0 M504 0 C524.18 0.02, 536.06 9.22, 536 32 M504 0 C527.62 -2.03, 536.19 12.14, 536 32 M536 32 C536.23 119.32, 535.05 208.15, 536 312 M536 32 C534.29 108.26, 534.2 184.92, 536 312 M536 312 C536.02 332.92, 524.18 343.46, 504 344 M536 312 C535.84 332.95, 524.39 344.63, 504 344 M504 344 C345.84 344.8, 185.36 344.64, 32 344 M504 344 C398.02 344.39, 291.94 344.97, 32 344 M32 344 C9.69 345.85, -0.61 333.61, 0 312 M32 344 C9.65 341.81, 0.85 335.51, 0 312 M0 312 C-1.08 225.17, -0.59 134.83, 0 32 M0 312 C1.59 250.99, 0.25 188.01, 0 32 M0 32 C-0.57 12.39, 11.66 1.37, 32 0 M0 32 C-0.71 11.5, 12.39 0.83, 32 0" stroke="#1e1e1e" stroke-width="2" fill="none"></path></g><g stroke-linecap="round" transform="translate(378.95260968931456 494.79411764705907) rotate(0 25 15)"><path d="M7.5 0 C13.27 0.61, 25.94 -3.4, 42.5 0 C50.03 -0.44, 48.48 0.66, 50 7.5 C49.75 9.99, 49.3 13.07, 50 22.5 C48.33 29.37, 44.13 29.63, 42.5 30 C29.72 29.84, 18.12 33.08, 7.5 30 C5.17 27, -3.08 30.95, 0 22.5 C0.99 20.32, 2.09 18.22, 0 7.5 C-2.33 5.85, 2.51 2.5, 7.5 0" stroke="none" stroke-width="0" fill="#ffffff"></path><path d="M7.5 0 C20.42 0.79, 28.32 -1.32, 42.5 0 M7.5 0 C19.45 -0.16, 29.97 -0.77, 42.5 0 M42.5 0 C47.73 0.17, 49.84 3.82, 50 7.5 M42.5 0 C48.33 -1.29, 51.19 4.4, 50 7.5 M50 7.5 C50.33 11.41, 49.34 15.92, 50 22.5 M50 7.5 C50.5 9.87, 49.35 13.15, 50 22.5 M50 22.5 C50.32 27.74, 48.73 30.61, 42.5 30 M50 22.5 C49.9 26.5, 45.94 30.91, 42.5 30 M42.5 30 C32.31 29.68, 22.8 28.44, 7.5 30 M42.5 30 C30.15 29.55, 17.08 29.13, 7.5 30 M7.5 30 C3.35 30.36, 0.7 25.63, 0 22.5 M7.5 30 C3.32 29.25, -0.71 26.46, 0 22.5 M0 22.5 C0.81 18.15, -0.89 13.06, 0 7.5 M0 22.5 C-0.18 18.88, -0.66 14.37, 0 7.5 M0 7.5 C-0.47 0.51, 1.94 1.73, 7.5 0 M0 7.5 C1.3 0.63, 1.89 -1.16, 7.5 0" stroke="#1e1e1e" stroke-width="2" fill="none"></path></g><g transform="translate(399.88860955961485 499.79411764705907) rotate(0 4.064000129699707 10)"><text x="4.064000129699707" y="14.016" font-family="Virgil, Segoe UI Emoji" font-size="16px" fill="#1e1e1e" text-anchor="middle" style="white-space: pre;" direction="ltr" dominant-baseline="alphabetic">b</text></g><g stroke-linecap="round" transform="translate(520.9526096893146 490.79411764705907) rotate(0 25 15)"><path d="M7.5 0 C20.97 0.18, 27.86 -1.22, 42.5 0 C46 1.69, 51.2 2, 50 7.5 C48.66 12.63, 47.39 14.69, 50 22.5 C52.27 25.93, 46.83 29.92, 42.5 30 C34.72 27.56, 18.5 34.01, 7.5 30 C-0.1 31.6, -2.31 28.98, 0 22.5 C-1.97 19.83, -0.21 14, 0 7.5 C-1.41 -0.63, 4.06 0.66, 7.5 0" stroke="none" stroke-width="0" fill="#a5d8ff"></path><path d="M7.5 0 C20.36 1.69, 32.97 0.87, 42.5 0 M7.5 0 C18.18 0.29, 28.55 0.87, 42.5 0 M42.5 0 C48.22 -1.12, 51.04 4.15, 50 7.5 M42.5 0 C46.09 -0.51, 51.03 3.06, 50 7.5 M50 7.5 C48.48 13.24, 50.11 17.99, 50 22.5 M50 7.5 C49.97 10.73, 50.31 14.02, 50 22.5 M50 22.5 C49.91 26.63, 46.14 30.79, 42.5 30 M50 22.5 C49.89 29.06, 46.95 30.16, 42.5 30 M42.5 30 C33.4 28.13, 21.92 29.52, 7.5 30 M42.5 30 C33.75 29.9, 24.5 28.79, 7.5 30 M7.5 30 C3.21 29.35, -0.61 26.6, 0 22.5 M7.5 30 C2.28 30.94, -1.38 28.83, 0 22.5 M0 22.5 C-0.11 18.45, 1.05 13.21, 0 7.5 M0 22.5 C-0.05 15.87, -0.09 11.38, 0 7.5 M0 7.5 C1.13 0.87, 1.97 -1.01, 7.5 0 M0 7.5 C-1.97 3.18, 1.92 -1.1, 7.5 0" stroke="#1971c2" stroke-width="2" fill="none"></path></g><g transform="translate(541.9366098953083 495.79411764705907) rotate(0 4.015999794006348 10)"><text x="4.015999794006348" y="14.016" font-family="Virgil, Segoe UI Emoji" font-size="16px" fill="#1e1e1e" text-anchor="middle" style="white-space: pre;" direction="ltr" dominant-baseline="alphabetic">c</text></g><g stroke-linecap="round" transform="translate(187.95260968931456 461.79411764705907) rotate(0 25 17.5)"><path d="M8.75 0 C16.6 1.98, 28.65 -0.2, 41.25 0 C45.24 -1.1, 47.09 1.24, 50 8.75 C51.69 13.53, 49.12 21, 50 26.25 C49.96 33.12, 50.28 37.67, 41.25 35 C31.61 37.16, 24.86 37.04, 8.75 35 C4.56 37.95, 3.4 29.76, 0 26.25 C-1.24 16.64, 1.36 13.07, 0 8.75 C2.59 0.31, 0.25 -0.86, 8.75 0" stroke="none" stroke-width="0" fill="#ffffff"></path><path d="M8.75 0 C20.96 -1.65, 31.91 0.12, 41.25 0 M8.75 0 C19.14 -0.78, 29.32 0.61, 41.25 0 M41.25 0 C45.86 -0.44, 50.89 3.4, 50 8.75 M41.25 0 C47.59 -0.96, 51.93 0.69, 50 8.75 M50 8.75 C48.44 13.32, 48.99 21.64, 50 26.25 M50 8.75 C50.07 13.82, 49.51 20.01, 50 26.25 M50 26.25 C49.91 33.44, 46.6 35.14, 41.25 35 M50 26.25 C49.73 33.2, 45.39 36.14, 41.25 35 M41.25 35 C33.37 33.07, 25.39 35.81, 8.75 35 M41.25 35 C31.28 34.37, 20.28 34.25, 8.75 35 M8.75 35 C2.73 35.81, -1.2 33.24, 0 26.25 M8.75 35 C2.93 33.72, -1.1 31.79, 0 26.25 M0 26.25 C1.5 19.03, 1.02 14.27, 0 8.75 M0 26.25 C0.54 22.02, -0.18 18.78, 0 8.75 M0 8.75 C-1.72 3.51, 2.41 -0.96, 8.75 0 M0 8.75 C0.29 5.12, 0.64 1.62, 8.75 0" stroke="#1e1e1e" stroke-width="2" fill="none"></path></g><g transform="translate(207.61660972364683 469.29411764705907) rotate(0 5.335999965667725 10)"><text x="5.335999965667725" y="14.016" font-family="Virgil, Segoe UI Emoji" font-size="16px" fill="#1e1e1e" text-anchor="middle" style="white-space: pre;" direction="ltr" dominant-baseline="alphabetic">a</text></g><g stroke-linecap="round" transform="translate(724.9526096893146 442.79411764705907) rotate(0 25 15)"><path d="M7.5 0 C17.79 -1.02, 28.87 -1.59, 42.5 0 C49.37 -3.37, 49.63 4.77, 50 7.5 C49.92 12.12, 52.35 17.19, 50 22.5 C47 24.42, 50.95 27.4, 42.5 30 C32.09 33.21, 21.79 27.93, 7.5 30 C5.85 30.01, 2.5 26.09, 0 22.5 C1.83 17.34, -2.12 15.46, 0 7.5 C-0.18 0.18, 3.78 2.05, 7.5 0" stroke="none" stroke-width="0" fill="#a5d8ff"></path><path d="M7.5 0 C15.47 -0.2, 24.41 0.68, 42.5 0 M7.5 0 C15.43 -0.51, 25.02 -0.05, 42.5 0 M42.5 0 C47.94 -0.83, 51.68 0.56, 50 7.5 M42.5 0 C48.89 0.26, 51.27 0.42, 50 7.5 M50 7.5 C50.09 11.43, 50.37 13.46, 50 22.5 M50 7.5 C49.86 11.85, 49.72 15.24, 50 22.5 M50 22.5 C49.76 28.47, 46.02 30.99, 42.5 30 M50 22.5 C48.14 27.03, 47.25 29.13, 42.5 30 M42.5 30 C35.67 30.85, 26.26 30.86, 7.5 30 M42.5 30 C33.04 30.25, 23.17 30.42, 7.5 30 M7.5 30 C2.51 28.89, -0.96 27.24, 0 22.5 M7.5 30 C3.2 31.49, -0.42 29.62, 0 22.5 M0 22.5 C-1.59 18.81, 1.2 16.81, 0 7.5 M0 22.5 C-0.6 19.44, -0.15 15.58, 0 7.5 M0 7.5 C0.25 4.42, 0.52 1.41, 7.5 0 M0 7.5 C-0.28 1.53, 1.32 -0.96, 7.5 0" stroke="#1971c2" stroke-width="2" fill="none"></path></g><g transform="translate(745.4006096435382 447.79411764705907) rotate(0 4.552000045776367 10)"><text x="4.552000045776367" y="14.016" font-family="Virgil, Segoe UI Emoji" font-size="16px" fill="#1e1e1e" text-anchor="middle" style="white-space: pre;" direction="ltr" dominant-baseline="alphabetic">d</text></g><g stroke-linecap="round"><g transform="translate(242.95260968931456 470.29411764705907) rotate(0 65 17.3310451727192)"><path d="M-0.76 -0.87 C7.53 -0.13, 38.85 -2.41, 49.86 3.52 C60.87 9.46, 51.84 29.49, 65.29 34.74 C78.74 39.98, 119.75 35.19, 130.55 35 M1.04 1.29 C9.68 1.74, 41.37 -3.57, 51.98 1.68 C62.58 6.92, 51.49 27.01, 64.68 32.78 C77.86 38.55, 120.42 36.18, 131.09 36.28" stroke="#1e1e1e" stroke-width="2" fill="none"></path></g><g transform="translate(242.95260968931456 470.29411764705907) rotate(0 65 17.3310451727192)"><path d="M107.75 45.24 C113.57 40.73, 123.1 40.34, 131.09 36.28 M107.75 45.24 C116.24 41.02, 125.41 39.1, 131.09 36.28" stroke="#1e1e1e" stroke-width="2" fill="none"></path></g><g transform="translate(242.95260968931456 470.29411764705907) rotate(0 65 17.3310451727192)"><path d="M107.45 28.14 C113.24 28.91, 122.86 33.8, 131.09 36.28 M107.45 28.14 C116.13 30.1, 125.4 34.36, 131.09 36.28" stroke="#1e1e1e" stroke-width="2" fill="none"></path></g></g><mask></mask><g stroke-linecap="round"><g transform="translate(576.9526096893146 502.29411764705907) rotate(0 71 -22)"><path d="M-0.88 -0.92 C7.02 -1.87, 35.91 2.73, 48.25 -4.54 C60.59 -11.8, 57.62 -37.74, 73.16 -44.51 C88.69 -51.29, 129.78 -45.32, 141.45 -45.17 M0.86 1.21 C9.07 0.92, 38.63 4.17, 50.57 -3.28 C62.5 -10.73, 57.33 -36.57, 72.47 -43.47 C87.61 -50.37, 129.76 -44.76, 141.4 -44.68" stroke="#1e1e1e" stroke-width="2" fill="none"></path></g><g transform="translate(576.9526096893146 502.29411764705907) rotate(0 71 -22)"><path d="M117.42 -37.62 C124.74 -41.32, 134.31 -42.44, 141.4 -44.68 M117.42 -37.62 C124.59 -38.87, 129.39 -41.9, 141.4 -44.68" stroke="#1e1e1e" stroke-width="2" fill="none"></path></g><g transform="translate(576.9526096893146 502.29411764705907) rotate(0 71 -22)"><path d="M118.49 -54.68 C125.58 -52.04, 134.75 -46.81, 141.4 -44.68 M118.49 -54.68 C125.31 -51.56, 129.83 -50.2, 141.4 -44.68" stroke="#1e1e1e" stroke-width="2" fill="none"></path></g></g><mask></mask><g transform="translate(451.95260968931456 354.29411764705907) rotate(0 19.860000610351562 12.5)"><text x="0" y="17.52" font-family="Virgil, Segoe UI Emoji" font-size="20px" fill="#1e1e1e" text-anchor="start" style="white-space: pre;" direction="ltr" dominant-baseline="alphabetic">main</text></g><g transform="translate(453.95260968931456 462.29411764705907) rotate(0 22.240001678466797 12.5)"><text x="0" y="17.52" font-family="Virgil, Segoe UI Emoji" font-size="20px" fill="#1e1e1e" text-anchor="start" style="white-space: pre;" direction="ltr" dominant-baseline="alphabetic">Echo</text></g><g stroke-linecap="round"><g transform="translate(38.952609689314556 472.29411764705907) rotate(0 70.5 -1)"><path d="M1.08 0.78 C24.84 0.41, 118.63 -1.26, 141.84 -1.84 M0.18 0.14 C23.93 -0.04, 117.55 0.09, 141.33 -0.21" stroke="#1e1e1e" stroke-width="2" fill="none"></path></g><g transform="translate(38.952609689314556 472.29411764705907) rotate(0 70.5 -1)"><path d="M117.88 8.45 C124.7 7.58, 129.23 2.96, 141.33 -0.21 M117.88 8.45 C123.05 5.46, 130.25 3.76, 141.33 -0.21" stroke="#1e1e1e" stroke-width="2" fill="none"></path></g><g transform="translate(38.952609689314556 472.29411764705907) rotate(0 70.5 -1)"><path d="M117.79 -8.65 C124.69 -5.47, 129.24 -6.04, 141.33 -0.21 M117.79 -8.65 C122.89 -7.46, 130.11 -4.99, 141.33 -0.21" stroke="#1e1e1e" stroke-width="2" fill="none"></path></g></g><mask></mask><g stroke-linecap="round"><g transform="translate(49.893786159902845 517.294117647059) rotate(0 103.5 0)"><path d="M-1.18 0.65 C33.37 0.44, 172.55 -0.89, 207.07 -1.19 M0.39 -0.06 C34.81 -0.18, 171.52 -0.21, 206.16 -0.27" stroke="#1e1e1e" stroke-width="2" fill="none"></path></g></g><mask></mask><g stroke-linecap="round" transform="translate(242.95260968931456 288.794117647059) rotate(0 25 14)"><path d="M7 0 C15.01 2.76, 28.26 1.28, 43 0 C48.57 0.43, 51.68 5.93, 50 7 C50.7 11.18, 48.98 12.16, 50 21 C53.21 29.2, 50.72 25.69, 43 28 C31.85 27.65, 17.77 27.94, 7 28 C1.49 28.65, -2.83 25.78, 0 21 C0.97 17.8, -1.45 9.53, 0 7 C1.18 0.41, 4.73 2.67, 7 0" stroke="none" stroke-width="0" fill="#ffec99"></path><path d="M7 0 C17.63 -0.31, 27.96 -1.74, 43 0 M7 0 C18.26 0.18, 27.1 -0.26, 43 0 M43 0 C47.49 -1.04, 49.58 4.16, 50 7 M43 0 C48.09 -1.54, 49.05 0.34, 50 7 M50 7 C50.7 12.33, 50.72 16.63, 50 21 M50 7 C49.82 10.63, 49.67 14.89, 50 21 M50 21 C51.58 27.4, 47.36 26.99, 43 28 M50 21 C50.71 25.41, 47.17 27.28, 43 28 M43 28 C29.37 28.84, 20.57 27.49, 7 28 M43 28 C31.86 27.5, 19.37 28.42, 7 28 M7 28 C1.52 26.7, 0.51 23.86, 0 21 M7 28 C2.35 26.57, 1.12 23.72, 0 21 M0 21 C1.27 17.4, 0.37 12.25, 0 7 M0 21 C-0.3 17.72, 0.55 14.73, 0 7 M0 7 C1.68 2.81, 1.77 0.88, 7 0 M0 7 C1.07 3.79, 1.63 -1.96, 7 0" stroke="#ffa94d" stroke-width="2" fill="none"></path></g><g stroke-linecap="round" transform="translate(216.83496263049102 288.794117647059) rotate(0 12.058823529411768 15)"><path d="M6.03 0 C10.12 -2.19, 15.26 -0.8, 18.09 0 C23.06 -0.39, 23.2 5.46, 24.12 6.03 C25.03 14.31, 24.3 15.09, 24.12 23.97 C27.45 27.41, 24.61 28.53, 18.09 30 C12.81 28.58, 11.19 31.26, 6.03 30 C1.31 31.69, -1.34 25.78, 0 23.97 C-2.38 18.17, 2.05 9.61, 0 6.03 C3.23 2.06, 0.31 1.37, 6.03 0" stroke="none" stroke-width="0" fill="#ffec99"></path><path d="M6.03 0 C10.77 0.72, 15.47 -1.09, 18.09 0 M6.03 0 C9.85 0.42, 12.85 0.3, 18.09 0 M18.09 0 C22.79 -1.97, 23.1 0.9, 24.12 6.03 M18.09 0 C22.13 2.17, 25.73 -0.08, 24.12 6.03 M24.12 6.03 C24.96 13.83, 25.72 21.03, 24.12 23.97 M24.12 6.03 C23.42 10.25, 23.74 14.86, 24.12 23.97 M24.12 23.97 C23.07 28.97, 21.75 30.78, 18.09 30 M24.12 23.97 C25.54 28.83, 22.76 28.95, 18.09 30 M18.09 30 C15.38 30.12, 9.84 29.8, 6.03 30 M18.09 30 C13.51 30.5, 10.08 29.75, 6.03 30 M6.03 30 C2.24 28.93, -0.98 29.1, 0 23.97 M6.03 30 C3.28 30.75, -1.49 28.86, 0 23.97 M0 23.97 C0.92 15.81, 0.09 10.38, 0 6.03 M0 23.97 C-0.31 19.8, -0.8 14.05, 0 6.03 M0 6.03 C-0.59 0.63, 3.59 0.85, 6.03 0 M0 6.03 C-1.06 3.71, 1.54 -1.71, 6.03 0" stroke="#fab005" stroke-width="2" fill="none"></path></g><g transform="translate(223.55778619423512 293.794117647059) rotate(0 5.335999965667725 10)"><text x="5.335999965667725" y="14.016" font-family="Virgil, Segoe UI Emoji" font-size="16px" fill="#1e1e1e" text-anchor="middle" style="white-space: pre;" direction="ltr" dominant-baseline="alphabetic">a</text></g><g stroke-linecap="round"><g transform="translate(49.893786159902845 563.2689173303545) rotate(0 104.52853026576338 0)"><path d="M0.57 -1.18 C35.36 -0.95, 174.99 0.54, 209.58 0.72 M-0.59 0.82 C34.02 0.76, 173.73 -1.09, 208.9 -1.02" stroke="#1e1e1e" stroke-width="2" fill="none"></path></g></g><mask></mask><g stroke-linecap="round" transform="translate(407.95260968931456 295) rotate(0 25 14)"><path d="M7 0 C19.11 -1.45, 33.39 1.07, 43 0 C49.49 -1.81, 51.81 4.06, 50 7 C48.44 12.21, 50.72 15.87, 50 21 C50.25 23.74, 50.99 28.8, 43 28 C32.35 26.4, 17.66 26.32, 7 28 C3.8 30.36, -1.05 25.97, 0 21 C1.19 14.63, 0.25 10.08, 0 7 C1.46 0.96, -0.06 1.03, 7 0" stroke="none" stroke-width="0" fill="#ffec99"></path><path d="M7 0 C15.81 -0.73, 27.58 -0.61, 43 0 M7 0 C19.65 -0.26, 32.52 -0.62, 43 0 M43 0 C48.77 -0.09, 51.63 1.84, 50 7 M43 0 C45.6 0.3, 48.73 3.38, 50 7 M50 7 C49.27 11.84, 49.32 17.28, 50 21 M50 7 C50.65 10.22, 49.9 13.4, 50 21 M50 21 C49.16 27.5, 49.45 27.48, 43 28 M50 21 C52.25 24.68, 47.57 28.07, 43 28 M43 28 C32.99 29.53, 27.66 28.95, 7 28 M43 28 C34.12 27.98, 22.84 29.22, 7 28 M7 28 C1.56 26.27, -0.61 25.89, 0 21 M7 28 C0.2 26.93, 2.1 24.11, 0 21 M0 21 C0.71 16.23, 0.44 10.46, 0 7 M0 21 C0.09 16.44, -0.2 11.03, 0 7 M0 7 C0.55 2.96, 2.36 -2, 7 0 M0 7 C-0.76 0.61, 3.22 -1.49, 7 0" stroke="#ffa94d" stroke-width="2" fill="none"></path></g><g stroke-linecap="round" transform="translate(381.83496263049113 295) rotate(0 12.058823529411768 15)"><path d="M6.03 0 C12.4 1.07, 16.65 -1.04, 18.09 0 C23.92 1.73, 23.16 4.38, 24.12 6.03 C24.6 12.28, 24.12 13.69, 24.12 23.97 C27.44 28.79, 24.4 32.56, 18.09 30 C15.82 29.19, 13.43 31.35, 6.03 30 C0.96 30.3, 2.49 27.21, 0 23.97 C0.11 16.91, 1.17 10.11, 0 6.03 C-2.39 3.04, -0.2 1.48, 6.03 0" stroke="none" stroke-width="0" fill="#ffec99"></path><path d="M6.03 0 C10.89 -0.22, 15.11 0.78, 18.09 0 M6.03 0 C9.56 -0.39, 12.95 0.02, 18.09 0 M18.09 0 C23.74 -0.49, 22.32 2.27, 24.12 6.03 M18.09 0 C20.83 1.05, 25.11 3.36, 24.12 6.03 M24.12 6.03 C23.04 11.6, 22.91 15.71, 24.12 23.97 M24.12 6.03 C24.12 12.14, 23.9 19.79, 24.12 23.97 M24.12 23.97 C25.91 27.47, 24.06 29.14, 18.09 30 M24.12 23.97 C24.03 28.06, 20.59 28.62, 18.09 30 M18.09 30 C14.89 30.57, 9.53 31.11, 6.03 30 M18.09 30 C13.28 30.55, 8.97 29.45, 6.03 30 M6.03 30 C1.4 30.22, -1.86 27.06, 0 23.97 M6.03 30 C4.11 28.44, 1.29 28.58, 0 23.97 M0 23.97 C0.52 17.91, 0.63 14.57, 0 6.03 M0 23.97 C-0.18 17.03, 0.2 11.5, 0 6.03 M0 6.03 C0.03 0.01, 1.35 -1.5, 6.03 0 M0 6.03 C0.89 0.52, 2.69 1.49, 6.03 0" stroke="#fab005" stroke-width="2" fill="none"></path></g><g transform="translate(389.82978603020314 300) rotate(0 4.064000129699707 10)"><text x="4.064000129699707" y="14.016" font-family="Virgil, Segoe UI Emoji" font-size="16px" fill="#1e1e1e" text-anchor="middle" style="white-space: pre;" direction="ltr" dominant-baseline="alphabetic">b</text></g><g stroke-linecap="round" transform="translate(532.9526096893146 285) rotate(0 25 14)"><path d="M7 0 C22.01 -0.14, 31.08 2, 43 0 C44.74 -1.01, 49.81 2.15, 50 7 C52.52 11.06, 51.68 17.32, 50 21 C50.34 28.8, 47.75 29.58, 43 28 C33.39 29.18, 27.83 29.41, 7 28 C5.81 25.03, 0.87 27.07, 0 21 C0.99 15.1, 1.57 15.62, 0 7 C-3.23 2.32, 1.16 -0.17, 7 0" stroke="none" stroke-width="0" fill="#ffec99"></path><path d="M7 0 C18.25 1.55, 28.44 -0.21, 43 0 M7 0 C15.78 -1.04, 22.69 -0.6, 43 0 M43 0 C48.26 -0.14, 51.01 1.19, 50 7 M43 0 C45.63 -0.97, 47.88 3.3, 50 7 M50 7 C50.93 11.93, 50.45 14.77, 50 21 M50 7 C50.6 11.82, 50.51 16.27, 50 21 M50 21 C48.94 26.79, 46.52 27.99, 43 28 M50 21 C49.81 24.87, 46.38 26.58, 43 28 M43 28 C31.17 29.97, 18.57 27.32, 7 28 M43 28 C35.17 28.52, 27.59 27.29, 7 28 M7 28 C0.48 29.87, 1.75 25.47, 0 21 M7 28 C4.49 29.96, 0.55 24.53, 0 21 M0 21 C-1.22 15.38, -0.81 11.23, 0 7 M0 21 C0.67 18.25, 0.1 14.53, 0 7 M0 7 C1.2 0.66, 1.24 1.49, 7 0 M0 7 C0.48 4.5, 0.61 -1.39, 7 0" stroke="#ffa94d" stroke-width="2" fill="none"></path></g><g stroke-linecap="round" transform="translate(506.83496263049113 285) rotate(0 12.058823529411768 15)"><path d="M6.03 0 C10.79 1.45, 13.15 -0.63, 18.09 0 C21.92 -0.18, 27.39 2.13, 24.12 6.03 C26.58 9.99, 24.74 18.37, 24.12 23.97 C24.2 29.57, 19.58 30.04, 18.09 30 C16.13 31.22, 14.61 28.3, 6.03 30 C2.88 31.4, -0.71 31.11, 0 23.97 C2.14 20.78, -3.05 11.23, 0 6.03 C-1.17 1.84, -0.25 2.36, 6.03 0" stroke="none" stroke-width="0" fill="#ffec99"></path><path d="M6.03 0 C9.43 -0.25, 11.92 0.13, 18.09 0 M6.03 0 C10.5 -0.11, 15.2 0.05, 18.09 0 M18.09 0 C23.12 -1.15, 22.34 1.17, 24.12 6.03 M18.09 0 C19.99 0.97, 24.64 0.09, 24.12 6.03 M24.12 6.03 C24.98 9.22, 24.67 15.18, 24.12 23.97 M24.12 6.03 C24.99 11.22, 23.81 16.35, 24.12 23.97 M24.12 23.97 C22.97 27.98, 21.94 29.31, 18.09 30 M24.12 23.97 C22.83 26.57, 22.49 30.89, 18.09 30 M18.09 30 C13.02 29.61, 9 29.68, 6.03 30 M18.09 30 C14.63 29.59, 9.87 30.62, 6.03 30 M6.03 30 C3.76 29.81, 1.87 29.7, 0 23.97 M6.03 30 C2.56 28.86, 0.55 25.95, 0 23.97 M0 23.97 C-1.03 18.91, -1.18 15.51, 0 6.03 M0 23.97 C-0.05 18.62, 0.37 13, 0 6.03 M0 6.03 C-1.1 3.5, 2.42 1.88, 6.03 0 M0 6.03 C-1.72 0.62, 2.63 -1.17, 6.03 0" stroke="#fab005" stroke-width="2" fill="none"></path></g><g transform="translate(514.8777863658966 290) rotate(0 4.015999794006348 10)"><text x="4.015999794006348" y="14.016" font-family="Virgil, Segoe UI Emoji" font-size="16px" fill="#1e1e1e" text-anchor="middle" style="white-space: pre;" direction="ltr" dominant-baseline="alphabetic">c</text></g><g stroke-linecap="round"><g transform="translate(157.89378615990285 516) rotate(0 0 24)"><path d="M-0.38 -0.54 C-0.43 7.44, -0.57 39.86, -0.51 48.02 M0.43 0.37 C0.56 8.44, 0.59 40.86, 0.47 48.73" stroke="#1e1e1e" stroke-width="2" fill="none"></path></g></g><mask></mask><g stroke-linecap="round"><g transform="translate(248.88232070274802 513.9065519440371) rotate(0 0 24)"><path d="M0.16 0.05 C0.15 8.07, -0.14 40.02, -0.19 47.96 M-0.42 -0.4 C-0.51 7.73, -0.7 40.55, -0.72 48.65" stroke="#1e1e1e" stroke-width="2" fill="none"></path></g></g><mask></mask><g stroke-linecap="round"><g transform="translate(64.57986038141962 514) rotate(0 0 25.94133506050889)"><path d="M-0.59 0.13 C-0.84 8.86, -0.47 43.79, -0.49 52.42 M1.31 -0.84 C0.76 7.52, -1.18 41.57, -1.69 50.58" stroke="#1e1e1e" stroke-width="2" fill="none"></path></g></g><mask></mask><g stroke-linecap="round"><g transform="translate(662.6984604056927 499.502910666906) rotate(0 103.5 0)"><path d="M0.25 -0.66 C34.78 -0.64, 173.37 -0.14, 207.94 -0.2 M-1.07 1.61 C33.31 1.85, 172.77 1.54, 207.49 1.23" stroke="#1e1e1e" stroke-width="2" fill="none"></path></g></g><mask></mask><g stroke-linecap="round" transform="translate(807.7572839351044 506.002910666906) rotate(0 25 14)"><path d="M7 0 C16.89 -2.54, 32.39 -2.74, 43 0 C49.35 1.97, 53.59 -0.58, 50 7 C47.76 12.17, 50.61 12.98, 50 21 C47.36 26.11, 49.09 27.8, 43 28 C28.87 26.7, 22.81 24.74, 7 28 C5.39 27.59, 3.39 25.49, 0 21 C0.56 17.88, 0.26 9.98, 0 7 C-1.82 5.43, 4.91 3.6, 7 0" stroke="none" stroke-width="0" fill="#ffec99"></path><path d="M7 0 C18.22 0.81, 28.36 -2.05, 43 0 M7 0 C15.82 0.63, 23.25 0.89, 43 0 M43 0 C47.98 1.65, 48.98 3.77, 50 7 M43 0 C47.06 -0.12, 51.68 0.94, 50 7 M50 7 C49.41 8.75, 51.22 13.79, 50 21 M50 7 C50.5 12.43, 50.72 17.2, 50 21 M50 21 C51.45 26, 47.28 29.36, 43 28 M50 21 C52.26 27.89, 48.36 28.08, 43 28 M43 28 C34.82 29.12, 23.91 28.71, 7 28 M43 28 C31.95 28.95, 19.33 27.17, 7 28 M7 28 C3.23 27.92, 1.28 24.48, 0 21 M7 28 C0.62 29.57, -1.11 27.91, 0 21 M0 21 C0.47 16.88, 0.59 14.64, 0 7 M0 21 C0.34 15.87, -0.22 10.65, 0 7 M0 7 C1.3 0.63, 1.56 -1.77, 7 0 M0 7 C1.85 0.69, 1.29 -2.09, 7 0" stroke="#ffa94d" stroke-width="2" fill="none"></path></g><g stroke-linecap="round" transform="translate(781.6396368762807 506.002910666906) rotate(0 12.058823529411711 15)"><path d="M6.03 0 C9.93 -1.42, 14.79 1.33, 18.09 0 C25.7 -2.91, 22.27 -0.69, 24.12 6.03 C24.88 9.91, 21.49 16.71, 24.12 23.97 C25.54 27.79, 22.94 28.81, 18.09 30 C16.42 27.99, 12.89 29.68, 6.03 30 C5.39 29.82, 1.59 28.22, 0 23.97 C0.28 15.2, -1.71 12.73, 0 6.03 C2.58 5.61, -1.26 -3.52, 6.03 0" stroke="none" stroke-width="0" fill="#ffec99"></path><path d="M6.03 0 C9.53 -1.13, 14.19 -0.1, 18.09 0 M6.03 0 C10.04 0.48, 13.66 0.42, 18.09 0 M18.09 0 C21.09 1.44, 23.59 1.9, 24.12 6.03 M18.09 0 C23.78 -1.4, 22.34 2.12, 24.12 6.03 M24.12 6.03 C25.59 10.96, 25.13 15, 24.12 23.97 M24.12 6.03 C25.11 11.27, 24.89 16.38, 24.12 23.97 M24.12 23.97 C23.73 29.35, 24.07 31.94, 18.09 30 M24.12 23.97 C24.81 28.07, 21.12 28.09, 18.09 30 M18.09 30 C13.21 30.32, 9.32 29.16, 6.03 30 M18.09 30 C13.95 29.56, 10.6 30.08, 6.03 30 M6.03 30 C3.29 28.81, -1.49 29.35, 0 23.97 M6.03 30 C0.9 32.24, -1.85 27.89, 0 23.97 M0 23.97 C0.69 20.02, 1.22 15.16, 0 6.03 M0 23.97 C-0.48 17.87, 0.53 10.89, 0 6.03 M0 6.03 C-0.78 0.24, 3.61 -1.43, 6.03 0 M0 6.03 C-1.05 -0.08, 3.21 1.44, 6.03 0" stroke="#fab005" stroke-width="2" fill="none"></path></g><g transform="translate(789.1464603599161 511.002910666906) rotate(0 4.552000045776367 10)"><text x="4.552000045776367" y="14.016" font-family="Virgil, Segoe UI Emoji" font-size="16px" fill="#1e1e1e" text-anchor="middle" style="white-space: pre;" direction="ltr" dominant-baseline="alphabetic">d</text></g><g stroke-linecap="round"><g transform="translate(662.6984604056927 545.4777103502015) rotate(0 104.52853026576338 0)"><path d="M-0.03 0.15 C35.16 0.45, 175.2 0.65, 210.13 0.81 M-1.51 -0.81 C33.72 -0.77, 174.66 -0.91, 209.74 -0.88" stroke="#1e1e1e" stroke-width="2" fill="none"></path></g></g><mask></mask><g stroke-linecap="round"><g transform="translate(770.6984604056927 498.208793019847) rotate(0 0 24)"><path d="M0.49 0.37 C0.53 8.45, 0.28 40.5, 0.22 48.51 M0.08 0.09 C0.07 8.01, -0.06 39.89, -0.1 47.81" stroke="#1e1e1e" stroke-width="2" fill="none"></path></g></g><mask></mask><g stroke-linecap="round"><g transform="translate(861.6869949485379 496.11534496388435) rotate(0 0 24)"><path d="M0.22 0.51 C0.15 8.53, 0.17 40.47, 0.09 48.45 M-0.34 0.3 C-0.51 8.14, -0.23 39.85, -0.3 47.72" stroke="#1e1e1e" stroke-width="2" fill="none"></path></g></g><mask></mask><g stroke-linecap="round"><g transform="translate(677.3845346272094 496.208793019847) rotate(0 0 25.94133506050889)"><path d="M0.19 0.99 C0.01 9.6, -0.53 44.27, -0.61 52.75 M-1.17 0.47 C-0.99 9.25, 1.79 42.3, 1.78 51.08" stroke="#1e1e1e" stroke-width="2" fill="none"></path></g></g><mask></mask><g stroke-linecap="round"><g transform="translate(358.89378615990285 533.6723791892963) rotate(0 40.954005904367705 0)"><path d="M0.38 -0.27 C13.99 -0.28, 68.92 -0.29, 82.56 -0.32 M-0.88 -1.46 C12.55 -1.27, 68.21 0.7, 81.95 1.05" stroke="#1e1e1e" stroke-width="2" fill="none"></path></g></g><mask></mask><g stroke-linecap="round"><g transform="translate(356.89378615990285 551.6471788725918) rotate(0 43.482536170131084 0)"><path d="M0.65 -0.32 C15.13 -0.35, 72.87 -0.64, 87.26 -0.46 M-0.47 -1.53 C13.85 -1.37, 72.02 0.78, 86.47 0.84" stroke="#1e1e1e" stroke-width="2" fill="none"></path></g></g><mask></mask><g stroke-linecap="round"><g transform="translate(433.7903325114834 531.1694685223903) rotate(0 0 9.557672481942063)"><path d="M0.02 0.35 C0.07 3.55, 0.43 15.83, 0.42 18.99 M-0.63 0.05 C-0.63 3.35, 0.17 16.57, 0.2 19.63" stroke="#1e1e1e" stroke-width="2" fill="none"></path></g></g><mask></mask><g stroke-linecap="round"><g transform="translate(390.487872190155 531.1694685223905) rotate(0 0 13.045731570432338)"><path d="M0.42 -0.12 C0.41 4.21, 0.01 21.87, -0.04 26.32 M-0.03 -0.66 C-0.12 3.47, -0.46 21.07, -0.49 25.47" stroke="#1e1e1e" stroke-width="2" fill="none"></path></g></g><mask></mask><g stroke-linecap="round"><g transform="translate(412.93200483939967 529.1722242720573) rotate(0 0 13.045731570432338)"><path d="M0.01 -0.32 C-0.11 3.95, -0.47 21.26, -0.48 25.72 M-0.66 0.71 C-0.62 5.02, 0.47 22.09, 0.51 26.22" stroke="#1e1e1e" stroke-width="2" fill="none"></path></g></g><mask></mask><g stroke-linecap="round"><g transform="translate(368.9654534188449 529.0476432451708) rotate(0 0 13.045731570432338)"><path d="M-0.46 -0.44 C-0.32 3.9, 0.32 21.7, 0.36 26.08 M0.3 0.52 C0.44 4.95, 0.28 22.47, 0.12 26.78" stroke="#1e1e1e" stroke-width="2" fill="none"></path></g></g><mask></mask><g stroke-linecap="round"><g transform="translate(49.89378615990279 579) rotate(0 105.50000000000003 0)"><path d="M0.78 1.03 C35.87 0.91, 176.6 -0.82, 211.57 -0.91" stroke="#1e1e1e" stroke-width="2.5" fill="none" stroke-dasharray="1.5 8"></path></g><g transform="translate(49.89378615990279 579) rotate(0 105.50000000000003 0)"><path d="M188.14 7.83 C198.94 5.24, 204.78 0.23, 211.57 -0.91" stroke="#1e1e1e" stroke-width="2.5" fill="none" stroke-dasharray="1.5 6"></path></g><g transform="translate(49.89378615990279 579) rotate(0 105.50000000000003 0)"><path d="M188.01 -9.27 C198.84 -5.24, 204.73 -3.63, 211.57 -0.91" stroke="#1e1e1e" stroke-width="2.5" fill="none" stroke-dasharray="1.5 6"></path></g></g><mask></mask><g stroke-linecap="round"><g transform="translate(661.7204861596229 556.9356864772737) rotate(0 105.5 0)"><path d="M-0.36 -0.41 C34.9 -0.35, 176.06 0.04, 211.11 0.02" stroke="#1e1e1e" stroke-width="2.5" fill="none" stroke-dasharray="1.5 8"></path></g><g transform="translate(661.7204861596229 556.9356864772737) rotate(0 105.5 0)"><path d="M187.61 8.54 C193.17 6.54, 200.09 2.36, 211.11 0.02" stroke="#1e1e1e" stroke-width="2.5" fill="none" stroke-dasharray="1.5 6"></path></g><g transform="translate(661.7204861596229 556.9356864772737) rotate(0 105.5 0)"><path d="M187.63 -8.56 C193.14 -6.04, 200.05 -5.7, 211.11 0.02" stroke="#1e1e1e" stroke-width="2.5" fill="none" stroke-dasharray="1.5 6"></path></g></g><mask></mask><g stroke-linecap="round"><g transform="translate(861.8937861599029 27.194265913521406) rotate(0 -412.6889302592724 0)"><path d="M-0.76 -0.37 C-138.42 -0.51, -689.1 -1.34, -826.5 -1.08" stroke="#846358" stroke-width="2.5" fill="none" stroke-dasharray="1.5 8"></path></g><g transform="translate(861.8937861599029 27.194265913521406) rotate(0 -412.6889302592724 0)"><path d="M-803.01 -9.63 C-809.62 -9.48, -816.79 -5.03, -826.5 -1.08" stroke="#846358" stroke-width="2.5" fill="none" stroke-dasharray="1.5 6"></path></g><g transform="translate(861.8937861599029 27.194265913521406) rotate(0 -412.6889302592724 0)"><path d="M-803.01 7.47 C-809.59 3.27, -816.75 3.37, -826.5 -1.08" stroke="#846358" stroke-width="2.5" fill="none" stroke-dasharray="1.5 6"></path></g></g><mask></mask><g stroke-linecap="round"><g transform="translate(10.893786159902788 37) rotate(0 434 0)"><path d="M-0.89 0.85 C143.9 0.99, 724.07 0.83, 868.7 0.77 M0.84 0.25 C145.53 0.06, 723.39 -0.64, 868.12 -0.94" stroke="#846358" stroke-width="2" fill="none"></path></g></g><mask></mask><g stroke-linecap="round"><g transform="translate(12.991418047249226 106.01876454008014) rotate(0 434.45118405632684 0)"><path d="M0.88 0.76 C145.82 0.85, 725.2 -0.17, 869.84 -0.46 M-0.12 0.12 C144.74 0.45, 724.72 0.88, 869.38 0.84" stroke="#846358" stroke-width="2" fill="none"></path></g></g><mask></mask><g transform="translate(919.8937861599029 10) rotate(0 28.84800148010254 60)"><text x="0" y="14.016" font-family="Virgil, Segoe UI Emoji" font-size="16px" fill="#846358" text-anchor="start" style="white-space: pre;" direction="ltr" dominant-baseline="alphabetic">inject</text><text x="0" y="34.016" font-family="Virgil, Segoe UI Emoji" font-size="16px" fill="#846358" text-anchor="start" style="white-space: pre;" direction="ltr" dominant-baseline="alphabetic">down</text><text x="0" y="54.016" font-family="Virgil, Segoe UI Emoji" font-size="16px" fill="#846358" text-anchor="start" style="white-space: pre;" direction="ltr" dominant-baseline="alphabetic">up</text><text x="0" y="74.016" font-family="Virgil, Segoe UI Emoji" font-size="16px" fill="#846358" text-anchor="start" style="white-space: pre;" direction="ltr" dominant-baseline="alphabetic">across</text><text x="0" y="94.016" font-family="Virgil, Segoe UI Emoji" font-size="16px" fill="#846358" text-anchor="start" style="white-space: pre;" direction="ltr" dominant-baseline="alphabetic">through</text><text x="0" y="114.016" font-family="Virgil, Segoe UI Emoji" font-size="16px" fill="#846358" text-anchor="start" style="white-space: pre;" direction="ltr" dominant-baseline="alphabetic">send</text></g><g stroke-linecap="round"><g transform="translate(526.4945771117718 532.6281531548387) rotate(0 40.954005904367705 0)"><path d="M-0.37 0.91 C13.29 1.02, 67.99 0.14, 81.9 0.08 M1.64 0.35 C15.14 0.71, 67.4 1.97, 80.95 1.66" stroke="#1e1e1e" stroke-width="2" fill="none"></path></g></g><mask></mask><g stroke-linecap="round"><g transform="translate(524.4945771117718 550.602952838134) rotate(0 43.482536170131084 0)"><path d="M-0.01 0.08 C14.74 0.02, 73.75 0.43, 88.12 0.57 M-1.47 -0.92 C13.25 -1.42, 72.75 -1.26, 87.78 -1.26" stroke="#1e1e1e" stroke-width="2" fill="none"></path></g></g><mask></mask><g stroke-linecap="round"><g transform="translate(601.3911234633524 530.1252424879325) rotate(0 0 9.557672481942063)"><path d="M0.53 0.26 C0.48 3.51, -0.18 16.4, -0.33 19.54 M0.14 -0.08 C0.26 3.02, 0.63 15.49, 0.73 18.79" stroke="#1e1e1e" stroke-width="2" fill="none"></path></g></g><mask></mask><g stroke-linecap="round"><g transform="translate(558.088663142024 530.125242487933) rotate(0 0 13.045731570432338)"><path d="M-0.33 0.42 C-0.48 4.73, -0.48 21.82, -0.38 26.08 M0.5 0.16 C0.48 4.54, 0.73 22.38, 0.66 26.78" stroke="#1e1e1e" stroke-width="2" fill="none"></path></g></g><mask></mask><g stroke-linecap="round"><g transform="translate(580.5327957912687 528.1279982375996) rotate(0 0 13.045731570432338)"><path d="M-0.38 -0.01 C-0.28 4.25, 0.29 21.73, 0.28 26 M0.43 -0.49 C0.51 3.82, -0.04 22.24, 0 26.65" stroke="#1e1e1e" stroke-width="2" fill="none"></path></g></g><mask></mask><g stroke-linecap="round"><g transform="translate(536.5662443707138 528.0034172107131) rotate(0 0 13.045731570432338)"><path d="M0.28 -0.09 C0.27 4.17, -0.44 21.22, -0.45 25.6 M-0.24 -0.62 C-0.05 3.7, 0.51 21.47, 0.55 26.05" stroke="#1e1e1e" stroke-width="2" fill="none"></path></g></g><mask></mask><g stroke-linecap="round" transform="translate(29.14378615990279 59.25) rotate(0 29.00000000000003 15)"><path d="M7.5 0 C19.13 1.51, 29.71 -2.17, 50.5 0 C54.42 2.66, 54.78 4.72, 58 7.5 C57.83 10.23, 57.36 19.21, 58 22.5 C56.41 29.41, 57.55 29.98, 50.5 30 C39.25 30.55, 26.7 27.58, 7.5 30 C3.99 33.42, -3.03 28.88, 0 22.5 C1.26 19.39, 2.57 12.03, 0 7.5 C-0.33 3.27, 4.27 3.11, 7.5 0" stroke="none" stroke-width="0" fill="#eaddd7"></path><path d="M7.5 0 C23.53 -0.39, 41.09 -1.41, 50.5 0 M7.5 0 C20.5 0.47, 35.5 1.03, 50.5 0 M50.5 0 C53.69 -1.04, 56.03 2.95, 58 7.5 M50.5 0 C55.16 -0.48, 55.87 2.38, 58 7.5 M58 7.5 C58.07 12.65, 58.18 16.96, 58 22.5 M58 7.5 C58.07 12.15, 58.66 17.73, 58 22.5 M58 22.5 C57.05 27.66, 56.94 30.93, 50.5 30 M58 22.5 C56.01 27.07, 56.16 28.19, 50.5 30 M50.5 30 C34.55 28.68, 16.76 31.22, 7.5 30 M50.5 30 C39.34 30.04, 28.16 30.89, 7.5 30 M7.5 30 C0.75 30.86, -1.84 29.31, 0 22.5 M7.5 30 C1.71 28.13, -1.5 26.87, 0 22.5 M0 22.5 C0.35 17.66, -0.78 11.2, 0 7.5 M0 22.5 C-0.15 16.79, 0.7 10.79, 0 7.5 M0 7.5 C-1.64 1.68, 4.49 -0.8, 7.5 0 M0 7.5 C0.56 1.63, 0.95 -1.06, 7.5 0" stroke="#1e1e1e" stroke-width="2" fill="none"></path></g><g transform="translate(37.11978789940474 64.25) rotate(0 21.023998260498047 10)"><text x="21.023998260498047" y="14.016" font-family="Virgil, Segoe UI Emoji" font-size="16px" fill="#1e1e1e" text-anchor="middle" style="white-space: pre;" direction="ltr" dominant-baseline="alphabetic">inject</text></g><g stroke-linecap="round" transform="translate(86.40587617224452 59.17829988519932) rotate(0 10.5 15)"><path d="M5.25 0 C8.05 0.73, 8.93 0.53, 15.75 0 C18.25 3.06, 22.2 2.92, 21 5.25 C18.05 10.86, 21.79 15.9, 21 24.75 C22.75 27.19, 18.26 33.19, 15.75 30 C11.37 29.54, 9.5 28.73, 5.25 30 C1.8 32.38, -3.3 30.69, 0 24.75 C2.49 22.55, -1.05 13.4, 0 5.25 C1.11 2.97, -0.87 0.45, 5.25 0" stroke="none" stroke-width="0" fill="#eaddd7"></path><path d="M5.25 0 C9.19 0.54, 12.39 1.08, 15.75 0 M5.25 0 C9.46 0.22, 13.52 0.37, 15.75 0 M15.75 0 C18.99 1.66, 20.21 3.72, 21 5.25 M15.75 0 C20.75 0.18, 19.64 2.45, 21 5.25 M21 5.25 C22.6 10.1, 19.19 13.91, 21 24.75 M21 5.25 C21.43 10.04, 20.78 15.7, 21 24.75 M21 24.75 C19.23 29.03, 20.86 30.26, 15.75 30 M21 24.75 C22.93 28.28, 20.6 29.12, 15.75 30 M15.75 30 C12.25 30.05, 11.27 30.59, 5.25 30 M15.75 30 C12.93 29.88, 9.65 30.05, 5.25 30 M5.25 30 C0.51 29.51, 0 29.53, 0 24.75 M5.25 30 C0.39 30.59, 2.01 27.34, 0 24.75 M0 24.75 C-1.45 19.9, 1.9 11.18, 0 5.25 M0 24.75 C0.08 18.67, -0.09 12.08, 0 5.25 M0 5.25 C-0.93 1.65, -0.01 0.17, 5.25 0 M0 5.25 C-0.81 0.82, -0.01 2.25, 5.25 0" stroke="#1e1e1e" stroke-width="2" fill="none"></path></g><g stroke-linecap="round" transform="translate(107.40587617224452 59.17829988519932) rotate(0 10.5 15)"><path d="M5.25 0 C8.35 1.54, 13.12 0.55, 15.75 0 C20.39 -2.3, 24.32 -1.05, 21 5.25 C22.81 9.59, 20.13 19.11, 21 24.75 C22.23 26.64, 17.58 28.33, 15.75 30 C12.83 31.13, 8.13 31.17, 5.25 30 C0.86 28.18, 0.49 30.62, 0 24.75 C1.21 18.33, -2.43 9.97, 0 5.25 C1.48 0.5, -0.87 2.68, 5.25 0" stroke="none" stroke-width="0" fill="#eaddd7"></path><path d="M5.25 0 C9.87 -1.03, 12.4 -0.04, 15.75 0 M5.25 0 C8.77 0.36, 12.22 0.44, 15.75 0 M15.75 0 C20.56 0.15, 19.82 2.36, 21 5.25 M15.75 0 C17.96 -0.61, 20.79 3.69, 21 5.25 M21 5.25 C19.86 9.43, 19.22 18.36, 21 24.75 M21 5.25 C20.13 11.29, 21.77 16.7, 21 24.75 M21 24.75 C22.68 28.28, 20.42 29.23, 15.75 30 M21 24.75 C19.6 29.53, 17.02 27.84, 15.75 30 M15.75 30 C12.51 30.32, 8.22 30.85, 5.25 30 M15.75 30 C12.33 29.9, 9.57 30.36, 5.25 30 M5.25 30 C0.56 30.51, 1.74 27.46, 0 24.75 M5.25 30 C2.83 29.83, -1.12 26.53, 0 24.75 M0 24.75 C0.56 17.27, -1.56 9.44, 0 5.25 M0 24.75 C-0.44 17.81, -0.84 11.04, 0 5.25 M0 5.25 C-0.71 0.94, 0.22 1.96, 5.25 0 M0 5.25 C-0.85 -0.2, 3.15 0.04, 5.25 0" stroke="#1e1e1e" stroke-width="2" fill="none"></path></g><g transform="translate(112.56987620657685 64.17829988519932) rotate(0 5.335999965667725 10)"><text x="5.335999965667725" y="14.016" font-family="Virgil, Segoe UI Emoji" font-size="16px" fill="#1e1e1e" text-anchor="middle" style="white-space: pre;" direction="ltr" dominant-baseline="alphabetic">a</text></g><g stroke-linecap="round" transform="translate(129.40587617224458 59.17829988519932) rotate(0 10.5 15)"><path d="M5.25 0 C9.89 -1.27, 15.08 -1.53, 15.75 0 C18.37 1.04, 18.65 3.5, 21 5.25 C22.1 8.96, 19.27 14.18, 21 24.75 C20.29 29.71, 17 30.05, 15.75 30 C11.44 29.17, 8.32 31.37, 5.25 30 C5 28.74, -0.63 29.36, 0 24.75 C1.69 17.02, -2.3 14.33, 0 5.25 C-1.74 -1.32, -0.58 -3.26, 5.25 0" stroke="none" stroke-width="0" fill="#eaddd7"></path><path d="M5.25 0 C7.91 -0.21, 10.43 -0.14, 15.75 0 M5.25 0 C9.61 -0.06, 12.98 0.06, 15.75 0 M15.75 0 C18.13 -0.53, 20.82 3.44, 21 5.25 M15.75 0 C19.36 -2.07, 20 0.61, 21 5.25 M21 5.25 C20.65 9.24, 22.21 11.68, 21 24.75 M21 5.25 C21.97 11.87, 21.73 18.09, 21 24.75 M21 24.75 C19.78 29.36, 17.31 28.12, 15.75 30 M21 24.75 C21.33 29.44, 20.76 30.14, 15.75 30 M15.75 30 C12.29 30.73, 9.22 29.43, 5.25 30 M15.75 30 C12.55 30.2, 10.42 29.86, 5.25 30 M5.25 30 C2.69 29.85, -0.98 26.75, 0 24.75 M5.25 30 C4.01 32.23, -0.05 29.14, 0 24.75 M0 24.75 C1.18 18.49, 1.21 11.57, 0 5.25 M0 24.75 C-0.17 18.6, -0.57 14.19, 0 5.25 M0 5.25 C-0.74 0.05, 2.97 0.04, 5.25 0 M0 5.25 C1.03 -0.49, 2.54 -0.64, 5.25 0" stroke="#1e1e1e" stroke-width="2" fill="none"></path></g><g stroke-linecap="round" transform="translate(241.76878615990285 62.25) rotate(0 29 15)"><path d="M7.5 0 C18.35 3.04, 36.22 1.05, 50.5 0 C56.93 -1.94, 57.68 4.61, 58 7.5 C60.11 8.96, 56.9 14.74, 58 22.5 C61.04 27.83, 52.81 27.04, 50.5 30 C38.78 27.67, 27.31 32.14, 7.5 30 C2.09 31.5, 1.83 24.31, 0 22.5 C-1.93 19.05, 1.04 11.1, 0 7.5 C-3.46 4.41, 1.69 1.1, 7.5 0" stroke="none" stroke-width="0" fill="#eaddd7"></path><path d="M7.5 0 C21.22 0.94, 33.23 -0.68, 50.5 0 M7.5 0 C17.56 -0.11, 26.35 -0.81, 50.5 0 M50.5 0 C54.01 -0.06, 56.17 2.69, 58 7.5 M50.5 0 C55.33 -1.99, 56.4 2.57, 58 7.5 M58 7.5 C57.1 11.69, 57.17 17.88, 58 22.5 M58 7.5 C57.93 10.59, 57.43 13.87, 58 22.5 M58 22.5 C58.28 28.46, 54.19 29.62, 50.5 30 M58 22.5 C59.63 26.78, 53.23 32.19, 50.5 30 M50.5 30 C33.45 29.53, 18.82 28.73, 7.5 30 M50.5 30 C39.63 30.23, 27.4 30.88, 7.5 30 M7.5 30 C3.87 28.45, -1.39 29.21, 0 22.5 M7.5 30 C0.75 30.87, 1.31 26.3, 0 22.5 M0 22.5 C-0.43 20.55, -0.03 16.12, 0 7.5 M0 22.5 C-0.74 19.42, -0.61 16.32, 0 7.5 M0 7.5 C-0.86 1.56, 0.63 -1.92, 7.5 0 M0 7.5 C-0.66 2.09, 4.71 -1.51, 7.5 0" stroke="#1e1e1e" stroke-width="2" fill="none"></path></g><g transform="translate(253.17678519859913 67.25) rotate(0 17.59200096130371 10)"><text x="17.59200096130371" y="14.016" font-family="Virgil, Segoe UI Emoji" font-size="16px" fill="#1e1e1e" text-anchor="middle" style="white-space: pre;" direction="ltr" dominant-baseline="alphabetic">down</text></g><g stroke-linecap="round" transform="translate(305.01878615990273 63) rotate(0 10.5 15)"><path d="M5.25 0 C10 -1.06, 13.07 1.06, 15.75 0 C16.49 -2.88, 20.97 4.86, 21 5.25 C23.85 10.06, 18.26 11.33, 21 24.75 C21.04 31.45, 15.74 31.22, 15.75 30 C12.84 30.94, 11.33 28.48, 5.25 30 C4.61 27.17, 2.84 25.39, 0 24.75 C-3.48 19.15, -0.9 10.89, 0 5.25 C-2.51 -1.04, -0.39 -1.13, 5.25 0" stroke="none" stroke-width="0" fill="#eaddd7"></path><path d="M5.25 0 C8.29 1.03, 13.49 0.59, 15.75 0 M5.25 0 C8.11 0.05, 11.28 0.11, 15.75 0 M15.75 0 C19.1 -1.73, 19.61 1.81, 21 5.25 M15.75 0 C19.78 -0.73, 20.46 0.45, 21 5.25 M21 5.25 C19.57 8.33, 21.25 15.45, 21 24.75 M21 5.25 C21.02 10.55, 20.25 14.73, 21 24.75 M21 24.75 C22.42 27.63, 17.27 31.9, 15.75 30 M21 24.75 C22.59 26.49, 20.22 28.65, 15.75 30 M15.75 30 C12.69 29.89, 9.91 30.95, 5.25 30 M15.75 30 C12.62 29.7, 8.41 30.55, 5.25 30 M5.25 30 C0.23 30.76, 1.13 27.21, 0 24.75 M5.25 30 C-0.04 28.75, -1.01 27.47, 0 24.75 M0 24.75 C-1.92 17.8, -1.88 7.65, 0 5.25 M0 24.75 C-0.27 18.62, -0.76 12.47, 0 5.25 M0 5.25 C-0.57 1.39, 3.67 -1.31, 5.25 0 M0 5.25 C0.68 0.63, 1.33 -2.12, 5.25 0" stroke="#1e1e1e" stroke-width="2" fill="none"></path></g><g stroke-linecap="round" transform="translate(326.01878615990273 63) rotate(0 10.5 15)"><path d="M5.25 0 C8.5 1.21, 10.63 -1.41, 15.75 0 C19.22 3.11, 18.48 0.57, 21 5.25 C18.67 8.6, 21.33 20.85, 21 24.75 C17.49 29.47, 17.67 32.69, 15.75 30 C12.71 28.41, 9.26 28.59, 5.25 30 C4.59 27.14, 2.98 29.36, 0 24.75 C-0.46 19.98, -2.11 10.35, 0 5.25 C-2.14 0.62, -0.41 -3.55, 5.25 0" stroke="none" stroke-width="0" fill="#eaddd7"></path><path d="M5.25 0 C8.77 0.48, 11.37 -0.28, 15.75 0 M5.25 0 C7.29 0.05, 10.24 -0.45, 15.75 0 M15.75 0 C17.86 0.06, 21.46 1.12, 21 5.25 M15.75 0 C18.71 -1.3, 19.99 0.56, 21 5.25 M21 5.25 C21.22 12.2, 19.85 17.63, 21 24.75 M21 5.25 C20.39 9.4, 21.72 13.61, 21 24.75 M21 24.75 C19.02 30.15, 20.63 28.47, 15.75 30 M21 24.75 C21.97 26.9, 18.5 30.08, 15.75 30 M15.75 30 C13.14 31.03, 11.32 30.62, 5.25 30 M15.75 30 C11.21 30.37, 7.01 30.12, 5.25 30 M5.25 30 C2.88 28.96, -1.55 27.16, 0 24.75 M5.25 30 C0.74 29.22, 2.13 28.08, 0 24.75 M0 24.75 C-1.7 16.73, 0.02 10.85, 0 5.25 M0 24.75 C-0.83 18.35, -0.19 13.65, 0 5.25 M0 5.25 C1.92 0.44, 2.34 -0.98, 5.25 0 M0 5.25 C-0.42 -0.37, 3.6 0.25, 5.25 0" stroke="#1e1e1e" stroke-width="2" fill="none"></path></g><g stroke-linecap="round" transform="translate(348.01878615990273 63) rotate(0 10.5 15)"><path d="M5.25 0 C6.39 -1.62, 10.4 1.52, 15.75 0 C16.73 -1.18, 21.72 4.79, 21 5.25 C20.77 14.4, 17.32 18.5, 21 24.75 C19.42 30.94, 22.14 29.59, 15.75 30 C13.66 28.35, 10.06 28.33, 5.25 30 C4.73 31.11, -0.03 24.79, 0 24.75 C-2.37 15.14, -2.01 9.88, 0 5.25 C-2.16 -1.8, 4.32 -0.41, 5.25 0" stroke="none" stroke-width="0" fill="#eaddd7"></path><path d="M5.25 0 C9.53 -0.24, 12.96 -0.84, 15.75 0 M5.25 0 C8.33 -0.46, 11.13 0.01, 15.75 0 M15.75 0 C19.71 -0.63, 20.53 0.62, 21 5.25 M15.75 0 C18.24 -1.19, 22.06 0.18, 21 5.25 M21 5.25 C20.02 8.08, 19.52 13.4, 21 24.75 M21 5.25 C21.56 11.74, 19.91 19.76, 21 24.75 M21 24.75 C22.38 26.72, 20.09 28.82, 15.75 30 M21 24.75 C20.25 28.33, 17.58 29.44, 15.75 30 M15.75 30 C12.97 30.73, 10.55 30.82, 5.25 30 M15.75 30 C13.01 30.29, 11.37 29.82, 5.25 30 M5.25 30 C0.2 28.91, -0.87 27.57, 0 24.75 M5.25 30 C3.88 29.83, 0.45 25.97, 0 24.75 M0 24.75 C0.01 16.75, -0.2 10.81, 0 5.25 M0 24.75 C-0.1 19.64, 1.12 14.24, 0 5.25 M0 5.25 C0.59 0.77, 1.39 -1.84, 5.25 0 M0 5.25 C1.85 2, 2.33 0.92, 5.25 0" stroke="#1e1e1e" stroke-width="2" fill="none"></path></g><g transform="translate(353.182786194235 68) rotate(0 5.335999965667725 10)"><text x="5.335999965667725" y="14.016" font-family="Virgil, Segoe UI Emoji" font-size="16px" fill="#1e1e1e" text-anchor="middle" style="white-space: pre;" direction="ltr" dominant-baseline="alphabetic">a</text></g><g stroke-linecap="round" transform="translate(370.51878615990285 63) rotate(0 10.5 15)"><path d="M5.25 0 C9 1.78, 11.46 -0.47, 15.75 0 C19.97 3.04, 21.33 -0.94, 21 5.25 C17.58 10.69, 19.46 16.36, 21 24.75 C23.89 27.84, 20.75 31.83, 15.75 30 C15.02 28.35, 12.88 30.43, 5.25 30 C1.72 26.54, 1.91 27.44, 0 24.75 C-1.84 17.21, -1.87 8.4, 0 5.25 C2.57 1.34, -0.24 2.82, 5.25 0" stroke="none" stroke-width="0" fill="#eaddd7"></path><path d="M5.25 0 C8.35 -0.76, 12.68 -0.94, 15.75 0 M5.25 0 C8.13 0.11, 11.87 -0.08, 15.75 0 M15.75 0 C18.78 -1.13, 20.12 0.71, 21 5.25 M15.75 0 C20.31 -1.57, 18.75 2.17, 21 5.25 M21 5.25 C19.38 11.58, 21.84 16.08, 21 24.75 M21 5.25 C20.18 11.66, 21.81 15.47, 21 24.75 M21 24.75 C21.84 27.07, 18.6 30.07, 15.75 30 M21 24.75 C19.33 27.69, 19.17 29.51, 15.75 30 M15.75 30 C12.59 30.78, 6.58 29.33, 5.25 30 M15.75 30 C12 29.77, 7.24 29.75, 5.25 30 M5.25 30 C0.88 29.32, 1.85 28.1, 0 24.75 M5.25 30 C2.2 27.72, 0.83 26.02, 0 24.75 M0 24.75 C-0.37 19.85, -0.9 14.81, 0 5.25 M0 24.75 C0.99 20.13, 0.34 16.31, 0 5.25 M0 5.25 C-0.36 -0.09, 3.36 0.22, 5.25 0 M0 5.25 C0.58 2.67, 0.51 -0.2, 5.25 0" stroke="#1e1e1e" stroke-width="2" fill="none"></path></g><g stroke-linecap="round" transform="translate(391.51878615990285 63) rotate(0 10.5 15)"><path d="M5.25 0 C6.24 -0.78, 10.25 1.43, 15.75 0 C19.58 -2.69, 18.04 1.79, 21 5.25 C19.12 15.46, 23.48 20.01, 21 24.75 C22.5 30.08, 16.06 32.86, 15.75 30 C14.99 30.43, 11.09 28.04, 5.25 30 C3.66 29.19, 1.1 25.74, 0 24.75 C-1.9 16.95, 2.71 15.67, 0 5.25 C-1.99 4.57, 5.1 1.54, 5.25 0" stroke="none" stroke-width="0" fill="#eaddd7"></path><path d="M5.25 0 C8.19 -0.88, 11.28 0, 15.75 0 M5.25 0 C7.62 -0.17, 9.61 -0.3, 15.75 0 M15.75 0 C18.37 -1.04, 21.92 0.39, 21 5.25 M15.75 0 C17 0.42, 21.24 0.55, 21 5.25 M21 5.25 C21.79 8.71, 20.48 16.12, 21 24.75 M21 5.25 C21.48 9.75, 21.22 15.16, 21 24.75 M21 24.75 C20.35 28.32, 17.79 29.51, 15.75 30 M21 24.75 C20.92 27.76, 21.5 30.74, 15.75 30 M15.75 30 C11.17 29.34, 9.1 29.27, 5.25 30 M15.75 30 C11.8 29.66, 8.43 29.77, 5.25 30 M5.25 30 C3.6 29.85, 0.39 26.27, 0 24.75 M5.25 30 C2.58 27.77, -2.11 28.04, 0 24.75 M0 24.75 C-0.87 18.53, -1.83 15.39, 0 5.25 M0 24.75 C0.1 18.77, -0.36 12.85, 0 5.25 M0 5.25 C1.61 1.97, 2.26 0.8, 5.25 0 M0 5.25 C-1.24 1.55, 3.1 -1.76, 5.25 0" stroke="#1e1e1e" stroke-width="2" fill="none"></path></g><g stroke-linecap="round" transform="translate(413.51878615990285 63) rotate(0 10.5 15)"><path d="M5.25 0 C8.23 -1.57, 9.31 -0.14, 15.75 0 C22.45 -3.51, 22.22 0.17, 21 5.25 C22.75 14.34, 18.17 22.65, 21 24.75 C18.17 31.09, 16.39 32.98, 15.75 30 C13.28 29.39, 9.38 28.5, 5.25 30 C-1.04 27.86, -1.13 26.09, 0 24.75 C-2.19 23.58, 3.01 18.4, 0 5.25 C1.04 2.49, -1.83 2.24, 5.25 0" stroke="none" stroke-width="0" fill="#eaddd7"></path><path d="M5.25 0 C6.53 -0.72, 9.66 0.25, 15.75 0 M5.25 0 C7.84 -0.21, 11.12 -0.3, 15.75 0 M15.75 0 C17.29 0.37, 21.21 0.71, 21 5.25 M15.75 0 C17.95 -1.79, 21.32 2.86, 21 5.25 M21 5.25 C20.36 7.89, 22.82 15.74, 21 24.75 M21 5.25 C20.76 9.64, 20.37 13.72, 21 24.75 M21 24.75 C20.93 27.82, 21.21 30.64, 15.75 30 M21 24.75 C22.36 30.49, 20.82 28.22, 15.75 30 M15.75 30 C13.73 30.52, 10.36 29.1, 5.25 30 M15.75 30 C13.66 29.92, 10.69 29.44, 5.25 30 M5.25 30 C2.47 28.06, -1.83 28.07, 0 24.75 M5.25 30 C0.04 29.54, -0.99 27.17, 0 24.75 M0 24.75 C-0.16 22.59, -1.09 17.26, 0 5.25 M0 24.75 C0.82 19.96, 0.28 15.35, 0 5.25 M0 5.25 C-1.08 1.57, 2.92 -1.53, 5.25 0 M0 5.25 C-1.84 1.73, 3.73 -1.61, 5.25 0" stroke="#1e1e1e" stroke-width="2" fill="none"></path></g><g transform="translate(419.95478603020314 68) rotate(0 4.064000129699707 10)"><text x="4.064000129699707" y="14.016" font-family="Virgil, Segoe UI Emoji" font-size="16px" fill="#1e1e1e" text-anchor="middle" style="white-space: pre;" direction="ltr" dominant-baseline="alphabetic">b</text></g><g stroke-linecap="round" transform="translate(300.51878615990285 58) rotate(0 35.5 20)"><path d="M10 0 C24.98 0.82, 39.2 -0.12, 61 0 M61 0 C66.53 -0.88, 69.96 4.25, 71 10 M71 10 C71.02 13.59, 69.67 17.72, 71 30 M71 30 C71.28 37.63, 66.35 39.62, 61 40 M61 40 C43.98 40.88, 21.62 40.34, 10 40 M10 40 C2.16 39.35, 0.07 35.21, 0 30 M0 30 C1.97 25.13, 1.19 20.93, 0 10 M0 10 C1.37 1.79, 1.94 1.71, 10 0" stroke="#1e1e1e" stroke-width="2.5" fill="none" stroke-dasharray="1.5 8"></path></g><g stroke-linecap="round" transform="translate(369.01878615990285 58) rotate(0 35.5 20)"><path d="M10 0 C21.12 -0.59, 32.37 -1, 61 0 M61 0 C66.63 0.92, 69.64 1.37, 71 10 M71 10 C69.89 14.81, 71.3 23.7, 71 30 M71 30 C69.69 36.29, 69.09 39.38, 61 40 M61 40 C49.2 41.2, 39.3 39.7, 10 40 M10 40 C3.4 38.54, -0.49 36.6, 0 30 M0 30 C0.99 26.38, 1.17 17.31, 0 10 M0 10 C-1.39 5.05, 1.81 0.76, 10 0" stroke="#1e1e1e" stroke-width="2.5" fill="none" stroke-dasharray="1.5 8"></path></g><g stroke-linecap="round" transform="translate(459.05558661910555 63.07170011480068) rotate(0 29.000000000000057 15)"><path d="M7.5 0 C19.46 -1.15, 35.38 2.75, 50.5 0 C57.2 -1.29, 55.77 3.35, 58 7.5 C57.61 12.87, 57.47 20.24, 58 22.5 C59.85 30.91, 57.42 31.05, 50.5 30 C37.99 30.86, 29.48 28.24, 7.5 30 C0.49 30.8, 1.18 30.7, 0 22.5 C-0.74 17.66, -1.32 11.45, 0 7.5 C-1.29 0.74, 2.99 3.01, 7.5 0" stroke="none" stroke-width="0" fill="#eaddd7"></path><path d="M7.5 0 C23.28 -1.5, 42.17 -1.47, 50.5 0 M7.5 0 C20.13 1, 33.46 0.25, 50.5 0 M50.5 0 C55.06 -0.38, 59.69 1.05, 58 7.5 M50.5 0 C55.9 -1.17, 57.6 3.57, 58 7.5 M58 7.5 C56.96 12.57, 56.78 18.3, 58 22.5 M58 7.5 C58.25 12.9, 58.4 18.11, 58 22.5 M58 22.5 C56.81 25.9, 57.47 29.87, 50.5 30 M58 22.5 C56.05 26.89, 54.29 30.63, 50.5 30 M50.5 30 C39.83 31.05, 26.21 29.81, 7.5 30 M50.5 30 C36.41 30.39, 21.75 30.23, 7.5 30 M7.5 30 C1.13 30.88, 0.34 26.36, 0 22.5 M7.5 30 C4.11 31.78, 0.03 29.22, 0 22.5 M0 22.5 C0.57 18.78, 1.04 14.87, 0 7.5 M0 22.5 C0.44 18.97, 0.46 14.48, 0 7.5 M0 7.5 C-1.15 3.47, 2.49 1.91, 7.5 0 M0 7.5 C1.73 3.32, 3.49 1.15, 7.5 0" stroke="#1e1e1e" stroke-width="2" fill="none"></path></g><g transform="translate(471.04758719893954 68.07170011480068) rotate(0 17.007999420166016 10)"><text x="17.007999420166016" y="14.016" font-family="Virgil, Segoe UI Emoji" font-size="16px" fill="#1e1e1e" text-anchor="middle" style="white-space: pre;" direction="ltr" dominant-baseline="alphabetic">send</text></g><g stroke-linecap="round" transform="translate(517.8328830602848 63) rotate(0 10.5 15)"><path d="M5.25 0 C8.04 0.51, 13.86 1.33, 15.75 0 C19.69 -0.76, 21.44 0.81, 21 5.25 C23.05 14.05, 18.36 20.07, 21 24.75 C19.04 25.19, 20.53 27.88, 15.75 30 C13.61 31.72, 9.92 31.44, 5.25 30 C4.79 29.29, -0.78 26.75, 0 24.75 C0.61 23.67, 1.54 16.83, 0 5.25 C-1.78 1.14, 4.65 -3.1, 5.25 0" stroke="none" stroke-width="0" fill="#eaddd7"></path><path d="M5.25 0 C6.85 0.03, 10.94 0.69, 15.75 0 M5.25 0 C8.72 -0.36, 11.38 -0.25, 15.75 0 M15.75 0 C18.9 0.93, 21.21 0.65, 21 5.25 M15.75 0 C19.49 -1.46, 21.63 0.01, 21 5.25 M21 5.25 C21.54 14.02, 20.86 22.21, 21 24.75 M21 5.25 C21.84 10.01, 20.06 14.64, 21 24.75 M21 24.75 C19.95 28.8, 19.11 28.56, 15.75 30 M21 24.75 C19.8 30.46, 20.71 31.02, 15.75 30 M15.75 30 C13.23 29.9, 9.55 29.11, 5.25 30 M15.75 30 C12.73 29.75, 9.9 30.45, 5.25 30 M5.25 30 C1.78 31.5, -0.31 29.23, 0 24.75 M5.25 30 C-0.35 30.99, 0.84 29.95, 0 24.75 M0 24.75 C0.95 18.69, 1.67 11.74, 0 5.25 M0 24.75 C0.11 19.11, 0.84 11.95, 0 5.25 M0 5.25 C0.86 2.75, 2.89 1.74, 5.25 0 M0 5.25 C0.12 -0.41, 1.04 -1.8, 5.25 0" stroke="#1e1e1e" stroke-width="2" fill="none"></path></g><g stroke-linecap="round" transform="translate(539.8328830602848 63) rotate(0 10.5 15)"><path d="M5.25 0 C8.88 -0.52, 12.28 -0.62, 15.75 0 C22.8 1.85, 24.41 3.67, 21 5.25 C18.8 8.68, 21.97 16.03, 21 24.75 C19.66 26.24, 20.05 31.18, 15.75 30 C13.26 29.77, 7.17 29.35, 5.25 30 C-1.64 28.71, -1.76 28.74, 0 24.75 C-1.87 16.67, 2.69 6.76, 0 5.25 C1.87 -0.15, 2.76 -2.15, 5.25 0" stroke="none" stroke-width="0" fill="#eaddd7"></path><path d="M5.25 0 C8.21 -0.29, 11.22 0.83, 15.75 0 M5.25 0 C7.55 0.3, 10.09 -0.24, 15.75 0 M15.75 0 C19.46 -1.27, 21.55 0.24, 21 5.25 M15.75 0 C21.52 1.54, 18.93 2.23, 21 5.25 M21 5.25 C19.95 10.93, 19.42 20.85, 21 24.75 M21 5.25 C20.32 11.24, 20.76 15.99, 21 24.75 M21 24.75 C19.96 30.17, 20.52 30.89, 15.75 30 M21 24.75 C21.03 28.79, 21.32 31.42, 15.75 30 M15.75 30 C12.76 29.18, 10.31 30.08, 5.25 30 M15.75 30 C13.21 30.47, 10.57 30.34, 5.25 30 M5.25 30 C-0.08 30.86, 0.73 29.73, 0 24.75 M5.25 30 C3.14 29.47, -0.96 29.32, 0 24.75 M0 24.75 C0.56 16.8, 0.79 11.09, 0 5.25 M0 24.75 C0.27 17.52, 0.41 10.16, 0 5.25 M0 5.25 C0.11 -0.13, 1.13 -1.57, 5.25 0 M0 5.25 C1.78 2.84, 0.93 -1.42, 5.25 0" stroke="#1e1e1e" stroke-width="2" fill="none"></path></g><g transform="translate(546.3168832662784 68) rotate(0 4.015999794006348 10)"><text x="4.015999794006348" y="14.016" font-family="Virgil, Segoe UI Emoji" font-size="16px" fill="#1e1e1e" text-anchor="middle" style="white-space: pre;" direction="ltr" dominant-baseline="alphabetic">c</text></g><g stroke-linecap="round" transform="translate(562.3328830602848 63) rotate(0 10.5 15)"><path d="M5.25 0 C9.34 -0.46, 14.82 1.01, 15.75 0 C22.66 1.92, 22.05 -1.14, 21 5.25 C22.06 8.64, 19.5 14.19, 21 24.75 C21.8 29.43, 22.45 29.41, 15.75 30 C11.41 29.18, 6.11 29.28, 5.25 30 C-0.01 30.49, 3.01 29.7, 0 24.75 C3 15.81, 1.99 11.08, 0 5.25 C1.01 -0.4, 0.72 3.53, 5.25 0" stroke="none" stroke-width="0" fill="#eaddd7"></path><path d="M5.25 0 C8.8 0.91, 11.99 0.21, 15.75 0 M5.25 0 C7.92 -0.34, 10.54 -0.38, 15.75 0 M15.75 0 C19.8 -1.51, 22.98 3.09, 21 5.25 M15.75 0 C17.18 0.48, 22.17 1.43, 21 5.25 M21 5.25 C19.34 14.42, 20.77 18.1, 21 24.75 M21 5.25 C20.83 9.88, 20.39 16.85, 21 24.75 M21 24.75 C22.27 29.14, 19.28 30.47, 15.75 30 M21 24.75 C23.07 29.67, 18.81 30.29, 15.75 30 M15.75 30 C14.05 30.11, 10.83 30.66, 5.25 30 M15.75 30 C11.71 30.33, 7.35 30.3, 5.25 30 M5.25 30 C2.48 31.48, 1.21 27.78, 0 24.75 M5.25 30 C0.79 31.07, 1.15 30.17, 0 24.75 M0 24.75 C0.88 17.84, 1.79 12.42, 0 5.25 M0 24.75 C0.47 19.05, -0.03 10.73, 0 5.25 M0 5.25 C-0.62 0.18, 3.3 0.94, 5.25 0 M0 5.25 C-0.82 0.33, 2.29 0.83, 5.25 0" stroke="#1e1e1e" stroke-width="2" fill="none"></path></g><g stroke-linecap="round" transform="translate(583.3328830602848 63) rotate(0 11.432000160217285 15)"><path d="M5.72 0 C10.93 1.11, 14.04 1.15, 17.15 0 C22.01 -2.89, 22.13 -0.06, 22.86 5.72 C21.74 7.84, 23.72 14.79, 22.86 24.28 C26.07 27.5, 23.62 33.04, 17.15 30 C12.01 29.18, 9.73 30.2, 5.72 30 C4.91 31.45, 0.11 26.32, 0 24.28 C1.46 17.27, 0.67 11.78, 0 5.72 C-1.03 5.44, 5.44 0.66, 5.72 0" stroke="none" stroke-width="0" fill="#eaddd7"></path><path d="M5.72 0 C8.06 0.1, 11.49 -0.29, 17.15 0 M5.72 0 C9.74 -0.3, 13.8 -0.37, 17.15 0 M17.15 0 C22.94 1.34, 21.06 2.33, 22.86 5.72 M17.15 0 C22.13 -0.32, 24.51 0.7, 22.86 5.72 M22.86 5.72 C22.59 8.61, 22.22 13.68, 22.86 24.28 M22.86 5.72 C22.37 12.69, 23.44 18.29, 22.86 24.28 M22.86 24.28 C22.89 28.56, 22.76 31.23, 17.15 30 M22.86 24.28 C22.43 28.38, 18.79 29.91, 17.15 30 M17.15 30 C13.85 30.82, 12.74 30.04, 5.72 30 M17.15 30 C12.34 30.3, 8.79 30.48, 5.72 30 M5.72 30 C3.11 29.53, -0.84 29.02, 0 24.28 M5.72 30 C3.05 31.92, 1.23 28.95, 0 24.28 M0 24.28 C1.69 21.18, 0.58 16.09, 0 5.72 M0 24.28 C-0.06 16.91, -0.39 10.56, 0 5.72 M0 5.72 C1.55 2.85, 1.19 -1.24, 5.72 0 M0 5.72 C0.54 2.73, 3.45 0.28, 5.72 0" stroke="#1e1e1e" stroke-width="2" fill="none"></path></g><g transform="translate(590.7008830908023 68) rotate(0 4.064000129699707 10)"><text x="4.064000129699707" y="14.016" font-family="Virgil, Segoe UI Emoji" font-size="16px" fill="#1e1e1e" text-anchor="middle" style="white-space: pre;" direction="ltr" dominant-baseline="alphabetic">b</text></g><g stroke-linecap="round" transform="translate(605.3328830602848 63) rotate(0 10.5 15)"><path d="M5.25 0 C9.49 -1.62, 12.24 -1.13, 15.75 0 C16.19 1.28, 18.88 0.41, 21 5.25 C24.2 9.43, 23.68 17.74, 21 24.75 C20.29 27.47, 17.75 26.61, 15.75 30 C14.56 30.79, 10.26 29.09, 5.25 30 C1.14 32.9, -3.1 30.12, 0 24.75 C-1.1 23.37, 3.35 15.75, 0 5.25 C-2.31 -0.6, 0.96 -1.39, 5.25 0" stroke="none" stroke-width="0" fill="#eaddd7"></path><path d="M5.25 0 C9.07 0.13, 11.34 0.13, 15.75 0 M5.25 0 C8.25 0.43, 9.74 0.19, 15.75 0 M15.75 0 C20.27 -0.28, 22.44 0.7, 21 5.25 M15.75 0 C17.89 -1.84, 23.26 1.6, 21 5.25 M21 5.25 C21.48 9.31, 19.54 12.63, 21 24.75 M21 5.25 C21.14 13.2, 22 21.29, 21 24.75 M21 24.75 C20.62 28.5, 17.37 29.92, 15.75 30 M21 24.75 C19.42 29.27, 19.64 28.69, 15.75 30 M15.75 30 C12.65 29.84, 8.5 29.04, 5.25 30 M15.75 30 C12.47 29.96, 8.33 30.32, 5.25 30 M5.25 30 C2.75 31.67, 1.07 28.99, 0 24.75 M5.25 30 C0.42 31.12, -0.02 30.45, 0 24.75 M0 24.75 C0.91 18.55, 1.62 10.23, 0 5.25 M0 24.75 C0.82 21.19, -0.29 16.11, 0 5.25 M0 5.25 C0.47 2.47, 3.09 0.25, 5.25 0 M0 5.25 C-0.48 2.03, 1.15 2.27, 5.25 0" stroke="#1e1e1e" stroke-width="2" fill="none"></path></g><g stroke-linecap="round" transform="translate(560.8328830602848 58) rotate(0 35.5 20)"><path d="M10 0 C24.57 0.5, 40.17 1.92, 61 0 M61 0 C69 -1.8, 71.42 4.35, 71 10 M71 10 C69.96 14.13, 73.11 21.31, 71 30 M71 30 C69.3 36.13, 66.61 40.55, 61 40 M61 40 C47.98 41.01, 32.02 39.76, 10 40 M10 40 C3.8 41.8, 1.23 36.29, 0 30 M0 30 C-1.18 24.63, 0.53 16.36, 0 10 M0 10 C1.4 4.88, 3.36 1.5, 10 0" stroke="#1e1e1e" stroke-width="2.5" fill="none" stroke-dasharray="1.5 8"></path></g><g stroke-linecap="round" transform="translate(666.7687861599029 62.25) rotate(0 29 15)"><path d="M7.5 0 C25.63 0.12, 37.06 1.19, 50.5 0 C54.47 0.5, 55.98 1.82, 58 7.5 C59.91 12.98, 58.44 18.35, 58 22.5 C59.91 28.93, 57.29 31.8, 50.5 30 C42.12 31.09, 28.93 30.26, 7.5 30 C4.25 33.05, -2.31 28.19, 0 22.5 C-0.15 17.02, -2.29 16.75, 0 7.5 C-2.86 3.41, 3.58 -1.75, 7.5 0" stroke="none" stroke-width="0" fill="#eaddd7"></path><path d="M7.5 0 C18.06 0.52, 31.24 0.71, 50.5 0 M7.5 0 C18.75 -1.29, 32.56 -0.5, 50.5 0 M50.5 0 C55.97 -0.39, 56.35 2.66, 58 7.5 M50.5 0 C55.4 1.23, 56.66 3.61, 58 7.5 M58 7.5 C58.86 11.88, 57.41 15.52, 58 22.5 M58 7.5 C58.05 13.8, 58.54 18.93, 58 22.5 M58 22.5 C56.49 25.61, 54.65 31.65, 50.5 30 M58 22.5 C59.73 25.63, 53.7 30.47, 50.5 30 M50.5 30 C40.64 28.06, 30.8 31.43, 7.5 30 M50.5 30 C38.13 29.92, 24.06 28.64, 7.5 30 M7.5 30 C0.63 30.72, -0.17 27.67, 0 22.5 M7.5 30 C4.6 28.43, -2.25 29.65, 0 22.5 M0 22.5 C-1.28 18.8, -0.67 14.88, 0 7.5 M0 22.5 C-0.56 19.12, -0.04 15.81, 0 7.5 M0 7.5 C0.89 3.58, 1.77 -0.8, 7.5 0 M0 7.5 C1.97 3.12, 3.77 0.68, 7.5 0" stroke="#1e1e1e" stroke-width="2" fill="none"></path></g><g transform="translate(687.2807862438262 67.25) rotate(0 8.48799991607666 10)"><text x="8.48799991607666" y="14.016" font-family="Virgil, Segoe UI Emoji" font-size="16px" fill="#1e1e1e" text-anchor="middle" style="white-space: pre;" direction="ltr" dominant-baseline="alphabetic">up</text></g><g stroke-linecap="round" transform="translate(730.0187861599029 63) rotate(0 10.5 15)"><path d="M5.25 0 C7.67 0.24, 10.11 -0.38, 15.75 0 C19.67 -2.99, 17.82 4.6, 21 5.25 C22.95 13.08, 22.83 19.87, 21 24.75 C18.47 29.23, 22.2 31.5, 15.75 30 C13.39 31.58, 7.97 30.34, 5.25 30 C0.36 30.22, 3.15 28.08, 0 24.75 C-2.49 20.91, 1.35 13.6, 0 5.25 C-0.87 -1.28, 3.34 -2.68, 5.25 0" stroke="none" stroke-width="0" fill="#eaddd7"></path><path d="M5.25 0 C8.63 0.7, 13.12 -0.91, 15.75 0 M5.25 0 C7.47 -0.08, 9.02 0.07, 15.75 0 M15.75 0 C19.16 1.07, 19.83 2.72, 21 5.25 M15.75 0 C17.93 -1.75, 19.52 3.25, 21 5.25 M21 5.25 C22.8 11.68, 19.65 19.09, 21 24.75 M21 5.25 C20.41 11.13, 20.73 19.65, 21 24.75 M21 24.75 C22.51 26.62, 17.68 30.41, 15.75 30 M21 24.75 C19.29 28.54, 18 29.81, 15.75 30 M15.75 30 C13.53 30.73, 10.21 30.78, 5.25 30 M15.75 30 C11.75 30.09, 8.69 29.95, 5.25 30 M5.25 30 C3.58 28.64, -1.96 30.12, 0 24.75 M5.25 30 C1.48 30.38, 0.57 26.33, 0 24.75 M0 24.75 C-1.75 17.6, -0.07 9.86, 0 5.25 M0 24.75 C0.46 20.18, -0.33 14.17, 0 5.25 M0 5.25 C1.72 2.29, 2.86 0.59, 5.25 0 M0 5.25 C1.5 1.67, -0.55 1.55, 5.25 0" stroke="#1e1e1e" stroke-width="2" fill="none"></path></g><g stroke-linecap="round" transform="translate(751.0187861599029 63) rotate(0 11.432000160217285 15)"><path d="M5.72 0 C8.12 -0.42, 13.08 -1.74, 17.15 0 C17.78 2.85, 23.94 2.8, 22.86 5.72 C24.7 13.99, 20.69 19.83, 22.86 24.28 C25.81 29.59, 21.41 28.18, 17.15 30 C12.52 30.57, 9.74 30.3, 5.72 30 C5.06 29.83, -2.08 25.06, 0 24.28 C1.27 15.65, -0.54 7.44, 0 5.72 C1.59 -0.78, -0.97 -0.28, 5.72 0" stroke="none" stroke-width="0" fill="#eaddd7"></path><path d="M5.72 0 C10.5 -1.02, 12.59 0.97, 17.15 0 M5.72 0 C8.44 0.07, 12.08 0.33, 17.15 0 M17.15 0 C19.79 0.97, 21.72 0.38, 22.86 5.72 M17.15 0 C19.48 1.5, 24 1.17, 22.86 5.72 M22.86 5.72 C21.81 12.4, 23.95 20.11, 22.86 24.28 M22.86 5.72 C22.33 10.96, 23.42 13.92, 22.86 24.28 M22.86 24.28 C21.3 28.51, 19.47 30.25, 17.15 30 M22.86 24.28 C21.61 27.9, 19 29.64, 17.15 30 M17.15 30 C11.65 30.83, 8.78 29.64, 5.72 30 M17.15 30 C14.74 30.09, 12.96 29.65, 5.72 30 M5.72 30 C-0.05 31.87, -0.24 28.43, 0 24.28 M5.72 30 C2.47 28.08, 0.96 27.11, 0 24.28 M0 24.28 C0.03 15.96, -0.54 10.41, 0 5.72 M0 24.28 C-0.42 19.6, 0.71 15.91, 0 5.72 M0 5.72 C1.11 2.5, 3.21 -0.07, 5.72 0 M0 5.72 C-2.3 3.46, 1.49 -1.17, 5.72 0" stroke="#1e1e1e" stroke-width="2" fill="none"></path></g><g transform="translate(758.4347865261138 68) rotate(0 4.015999794006348 10)"><text x="4.015999794006348" y="14.016" font-family="Virgil, Segoe UI Emoji" font-size="16px" fill="#1e1e1e" text-anchor="middle" style="white-space: pre;" direction="ltr" dominant-baseline="alphabetic">c</text></g><g stroke-linecap="round" transform="translate(773.0187861599029 63) rotate(0 10.5 15)"><path d="M5.25 0 C6.53 1.65, 11.72 0.63, 15.75 0 C21.25 1.91, 22.43 3.54, 21 5.25 C23.63 13.54, 21.2 17.12, 21 24.75 C20.62 30, 22.3 27.69, 15.75 30 C14.05 29.92, 7.96 28.42, 5.25 30 C4.55 27.14, 0.91 29.33, 0 24.75 C1.63 17.23, -2.72 14.67, 0 5.25 C-2.49 1.34, 5 -3.45, 5.25 0" stroke="none" stroke-width="0" fill="#eaddd7"></path><path d="M5.25 0 C7.32 0.15, 9.62 -0.96, 15.75 0 M5.25 0 C8.18 0.2, 11.42 -0.46, 15.75 0 M15.75 0 C17.96 1.3, 21.99 1.11, 21 5.25 M15.75 0 C20.39 2.2, 20.54 0.23, 21 5.25 M21 5.25 C19.95 9.83, 19.25 16.52, 21 24.75 M21 5.25 C20.38 12.91, 20.42 20.29, 21 24.75 M21 24.75 C19.91 28.08, 17.54 29.69, 15.75 30 M21 24.75 C22.91 28.32, 20.66 27.75, 15.75 30 M15.75 30 C10.92 28.98, 8.43 29.87, 5.25 30 M15.75 30 C12 30.42, 9.21 30.02, 5.25 30 M5.25 30 C2.24 28.33, 0.84 27.39, 0 24.75 M5.25 30 C3.32 27.84, -0.57 28.07, 0 24.75 M0 24.75 C-1.24 21.33, 1.13 15.47, 0 5.25 M0 24.75 C0.37 19.97, 0.47 14.57, 0 5.25 M0 5.25 C-2 3.1, 1.39 -1.02, 5.25 0 M0 5.25 C0.26 1.09, 2.07 -1.29, 5.25 0" stroke="#1e1e1e" stroke-width="2" fill="none"></path></g><g stroke-linecap="round" transform="translate(795.5187861599029 63) rotate(0 10.5 15)"><path d="M5.25 0 C8.09 0.32, 10.85 0.86, 15.75 0 C20.68 1.79, 22.8 -0.78, 21 5.25 C21.73 9.85, 20.92 19.72, 21 24.75 C24.05 25.94, 19.94 28.61, 15.75 30 C11.45 28.4, 10.79 28.49, 5.25 30 C2.66 31.08, -1.75 27.38, 0 24.75 C-2.96 20.27, -2.58 15.93, 0 5.25 C3.25 -1.7, -0.36 -3.55, 5.25 0" stroke="none" stroke-width="0" fill="#eaddd7"></path><path d="M5.25 0 C9.16 -0.89, 13.56 -0.07, 15.75 0 M5.25 0 C8.66 -0.45, 12.34 0.29, 15.75 0 M15.75 0 C20.24 -0.64, 21.99 3.66, 21 5.25 M15.75 0 C18.79 -1.52, 21.24 2.87, 21 5.25 M21 5.25 C19.04 11.75, 22.49 21.39, 21 24.75 M21 5.25 C20.12 9.63, 20.32 13.69, 21 24.75 M21 24.75 C19.29 27.94, 20.91 30.06, 15.75 30 M21 24.75 C22.41 26, 20.78 30.78, 15.75 30 M15.75 30 C13.37 29.81, 10.33 30.86, 5.25 30 M15.75 30 C13.25 30.18, 11.01 29.66, 5.25 30 M5.25 30 C2.59 29.14, 1.36 26.37, 0 24.75 M5.25 30 C1.18 29.82, -1.85 27.36, 0 24.75 M0 24.75 C1.18 18.4, -0.65 15.14, 0 5.25 M0 24.75 C0.53 18.34, -1.08 12.65, 0 5.25 M0 5.25 C-0.36 0.73, 1.98 -0.57, 5.25 0 M0 5.25 C0.32 0.46, 1.32 0.27, 5.25 0" stroke="#1e1e1e" stroke-width="2" fill="none"></path></g><g stroke-linecap="round" transform="translate(816.5187861599029 63) rotate(0 11.432000160217285 15)"><path d="M5.72 0 C11.19 1.04, 15.2 0.97, 17.15 0 C22.76 -2.53, 23.84 4.85, 22.86 5.72 C22.56 13.68, 25.74 16.25, 22.86 24.28 C23.55 26.71, 21.18 33.15, 17.15 30 C15.37 28.19, 10.92 30.44, 5.72 30 C0.16 29.13, -3.03 29.68, 0 24.28 C-2.04 19.72, 3.28 12.7, 0 5.72 C-2.11 -1.65, 1.96 -0.98, 5.72 0" stroke="none" stroke-width="0" fill="#eaddd7"></path><path d="M5.72 0 C9.51 0.05, 13.72 -0.57, 17.15 0 M5.72 0 C9.33 0.46, 13.97 -0.1, 17.15 0 M17.15 0 C21.95 1.91, 22.47 0.58, 22.86 5.72 M17.15 0 C21.2 1.12, 24.61 0.56, 22.86 5.72 M22.86 5.72 C24.22 11.28, 21.18 12.6, 22.86 24.28 M22.86 5.72 C22.22 11.59, 21.93 17.48, 22.86 24.28 M22.86 24.28 C24.52 28.16, 22.19 28.04, 17.15 30 M22.86 24.28 C24.39 28.88, 20.09 27.84, 17.15 30 M17.15 30 C14.89 31.03, 11.65 28.87, 5.72 30 M17.15 30 C12.79 29.54, 8.39 29.77, 5.72 30 M5.72 30 C3.27 28.12, -0.5 27.94, 0 24.28 M5.72 30 C0.06 29.11, -0.25 26.54, 0 24.28 M0 24.28 C-0.84 19.48, 0.4 12.52, 0 5.72 M0 24.28 C-1.05 18.79, -0.29 11.57, 0 5.72 M0 5.72 C0.23 1.33, 2.18 -1.12, 5.72 0 M0 5.72 C-0.43 2.17, -0.01 -2.03, 5.72 0" stroke="#1e1e1e" stroke-width="2" fill="none"></path></g><g transform="translate(823.3987862743438 68) rotate(0 4.552000045776367 10)"><text x="4.552000045776367" y="14.016" font-family="Virgil, Segoe UI Emoji" font-size="16px" fill="#1e1e1e" text-anchor="middle" style="white-space: pre;" direction="ltr" dominant-baseline="alphabetic">d</text></g><g stroke-linecap="round" transform="translate(838.5187861599029 63) rotate(0 10.5 15)"><path d="M5.25 0 C9.9 -1.42, 13.18 1.45, 15.75 0 C20.75 0.46, 19.18 1.37, 21 5.25 C21.97 10.7, 21.51 21.92, 21 24.75 C20.83 26.17, 16.21 32.8, 15.75 30 C12.52 29.6, 9.53 30.89, 5.25 30 C-0.93 27.12, -0.28 25.76, 0 24.75 C-2.37 15.66, -0.26 12.53, 0 5.25 C0.18 1.61, -0.14 -0.3, 5.25 0" stroke="none" stroke-width="0" fill="#eaddd7"></path><path d="M5.25 0 C8.86 -0.54, 10.66 -0.61, 15.75 0 M5.25 0 C9.34 0.54, 12.82 -0.31, 15.75 0 M15.75 0 C19.46 0.97, 22.52 0.58, 21 5.25 M15.75 0 C17.51 -2.18, 20.02 3.65, 21 5.25 M21 5.25 C21.24 11.12, 21.09 18.83, 21 24.75 M21 5.25 C21.64 10.97, 21.43 15.67, 21 24.75 M21 24.75 C22.33 28.93, 18.5 28.12, 15.75 30 M21 24.75 C18.84 29.08, 19.06 30.2, 15.75 30 M15.75 30 C12.62 29.77, 7.71 30.16, 5.25 30 M15.75 30 C13.83 29.46, 11.07 29.91, 5.25 30 M5.25 30 C0.15 29.23, -0.21 26.9, 0 24.75 M5.25 30 C2.77 31.24, -0.84 27.33, 0 24.75 M0 24.75 C0.53 18.5, -0.12 7.75, 0 5.25 M0 24.75 C0.15 17.31, 0.17 9.87, 0 5.25 M0 5.25 C-0.38 1.98, 0.09 -1.76, 5.25 0 M0 5.25 C1.82 2.44, 2.32 1.28, 5.25 0" stroke="#1e1e1e" stroke-width="2" fill="none"></path></g><g stroke-linecap="round" transform="translate(725.5187861599029 58) rotate(0 35.5 20)"><path d="M10 0 C20.8 -0.99, 35.94 1.28, 61 0 M61 0 C67.03 0.99, 72.91 2.94, 71 10 M71 10 C72.54 13.51, 69.51 17.46, 71 30 M71 30 C70.15 38.31, 69.17 38.37, 61 40 M61 40 C49.94 38.53, 38.22 37.91, 10 40 M10 40 C3.02 41.66, 0.06 37.9, 0 30 M0 30 C-0.89 24.08, -2.01 22.64, 0 10 M0 10 C-0.17 3.5, 5.16 -1.36, 10 0" stroke="#1e1e1e" stroke-width="2.5" fill="none" stroke-dasharray="1.5 8"></path></g><g stroke-linecap="round" transform="translate(794.0187861599029 58) rotate(0 35.5 20)"><path d="M10 0 C23.68 1.32, 34.11 1.32, 61 0 M61 0 C69.58 -0.4, 69.68 3.54, 71 10 M71 10 C69.64 15.08, 70.3 25.6, 71 30 M71 30 C72.51 35.04, 66.1 40.41, 61 40 M61 40 C49.34 38.02, 37.69 41.38, 10 40 M10 40 C3.39 41.23, -1.96 37.99, 0 30 M0 30 C-1.8 24.04, -0.09 16.81, 0 10 M0 10 C1.83 1.97, 1.38 1.87, 10 0" stroke="#1e1e1e" stroke-width="2.5" fill="none" stroke-dasharray="1.5 8"></path></g><g stroke-linecap="round"><g stroke-opacity="0.5" fill-opacity="0.5" transform="translate(95.03005641676742 76.97890962774947) rotate(0 62.4612873522245 131.42263421118645)"><path d="M0.6 0.06 C21.25 43.71, 103.74 218.53, 124.61 262.5" stroke="#846358" stroke-width="2.5" fill="none" stroke-dasharray="1.5 8"></path></g><g stroke-opacity="0.5" fill-opacity="0.5" transform="translate(95.03005641676742 76.97890962774947) rotate(0 62.4612873522245 131.42263421118645)"><path d="M106.84 244.92 C113.44 250.66, 119.17 259.07, 124.61 262.5" stroke="#846358" stroke-width="2.5" fill="none" stroke-dasharray="1.5 6"></path></g><g stroke-opacity="0.5" fill-opacity="0.5" transform="translate(95.03005641676742 76.97890962774947) rotate(0 62.4612873522245 131.42263421118645)"><path d="M122.3 237.61 C123.35 246.06, 123.51 257.11, 124.61 262.5" stroke="#846358" stroke-width="2.5" fill="none" stroke-dasharray="1.5 6"></path></g></g><mask></mask><g stroke-linecap="round"><g stroke-opacity="0.5" fill-opacity="0.5" transform="translate(139.8408383396863 74.88894412322286) rotate(0 37.997062145402396 108.39888414462717)"><path d="M-0.66 -0.92 C11.88 35.1, 63.44 180.14, 76.15 216.52" stroke="#846358" stroke-width="2.5" fill="none" stroke-dasharray="1.5 8"></path></g><g stroke-opacity="0.5" fill-opacity="0.5" transform="translate(139.8408383396863 74.88894412322286) rotate(0 37.997062145402396 108.39888414462717)"><path d="M60.27 197.21 C64.77 204.82, 71.81 211.19, 76.15 216.52" stroke="#846358" stroke-width="2.5" fill="none" stroke-dasharray="1.5 6"></path></g><g stroke-opacity="0.5" fill-opacity="0.5" transform="translate(139.8408383396863 74.88894412322286) rotate(0 37.997062145402396 108.39888414462717)"><path d="M76.4 191.52 C74.85 201.18, 75.83 209.69, 76.15 216.52" stroke="#846358" stroke-width="2.5" fill="none" stroke-dasharray="1.5 6"></path></g></g><mask></mask><g stroke-linecap="round"><g stroke-opacity="0.5" fill-opacity="0.5" transform="translate(335.99118595154226 79.29095778730961) rotate(0 -7.466383329245446 130.14944918364483)"><path d="M-0.99 -0.87 C-3.26 42.68, -11.67 217.69, -14.04 261.22" stroke="#846358" stroke-width="2.5" fill="none" stroke-dasharray="1.5 8"></path></g><g stroke-opacity="0.5" fill-opacity="0.5" transform="translate(335.99118595154226 79.29095778730961) rotate(0 -7.466383329245446 130.14944918364483)"><path d="M-21.39 237.33 C-20.88 245.25, -15.94 249.67, -14.04 261.22" stroke="#846358" stroke-width="2.5" fill="none" stroke-dasharray="1.5 6"></path></g><g stroke-opacity="0.5" fill-opacity="0.5" transform="translate(335.99118595154226 79.29095778730961) rotate(0 -7.466383329245446 130.14944918364483)"><path d="M-4.31 238.2 C-8.36 245.74, -7.97 249.93, -14.04 261.22" stroke="#846358" stroke-width="2.5" fill="none" stroke-dasharray="1.5 6"></path></g></g><mask></mask><g stroke-linecap="round"><g stroke-opacity="0.5" fill-opacity="0.5" transform="translate(316.693150139784 78.90154383893591) rotate(0 -41.1272738777148 103.94628690406155)"><path d="M1.17 -0.6 C-12.68 33.76, -68.63 172.26, -82.66 206.84" stroke="#846358" stroke-width="2.5" fill="none" stroke-dasharray="1.5 8"></path></g><g stroke-opacity="0.5" fill-opacity="0.5" transform="translate(316.693150139784 78.90154383893591) rotate(0 -41.1272738777148 103.94628690406155)"><path d="M-81.77 181.86 C-82.94 189.6, -83.98 197.38, -82.66 206.84" stroke="#846358" stroke-width="2.5" fill="none" stroke-dasharray="1.5 6"></path></g><g stroke-opacity="0.5" fill-opacity="0.5" transform="translate(316.693150139784 78.90154383893591) rotate(0 -41.1272738777148 103.94628690406155)"><path d="M-65.92 188.28 C-72.45 194.01, -78.83 199.63, -82.66 206.84" stroke="#846358" stroke-width="2.5" fill="none" stroke-dasharray="1.5 6"></path></g></g><mask></mask><g stroke-linecap="round"><g stroke-opacity="0.5" fill-opacity="0.5" transform="translate(402.99118595154226 81.29095778730965) rotate(0 8.533616670754554 185.64944918364483)"><path d="M1.02 0.27 C3.94 62.24, 15.12 310.36, 17.85 372.02" stroke="#846358" stroke-width="2.5" fill="none" stroke-dasharray="1.5 8"></path></g><g stroke-opacity="0.5" fill-opacity="0.5" transform="translate(402.99118595154226 81.29095778730965) rotate(0 8.533616670754554 185.64944918364483)"><path d="M8.26 348.93 C11.92 357.79, 15.84 364.64, 17.85 372.02" stroke="#846358" stroke-width="2.5" fill="none" stroke-dasharray="1.5 6"></path></g><g stroke-opacity="0.5" fill-opacity="0.5" transform="translate(402.99118595154226 81.29095778730965) rotate(0 8.533616670754554 185.64944918364483)"><path d="M25.34 348.16 C23.35 357.42, 21.61 364.52, 17.85 372.02" stroke="#846358" stroke-width="2.5" fill="none" stroke-dasharray="1.5 6"></path></g></g><mask></mask><g stroke-linecap="round"><g stroke-opacity="0.5" fill-opacity="0.5" transform="translate(381.776686890058 80.33243018118199) rotate(0 4.533616670754554 106.14944918364485)"><path d="M1.16 -0.69 C2.44 34.69, 7.01 175.78, 8.5 211.17" stroke="#846358" stroke-width="2.5" fill="none" stroke-dasharray="1.5 8"></path></g><g stroke-opacity="0.5" fill-opacity="0.5" transform="translate(381.776686890058 80.33243018118199) rotate(0 4.533616670754554 106.14944918364485)"><path d="M-0.91 188 C1.21 195.53, 3.94 206.79, 8.5 211.17" stroke="#846358" stroke-width="2.5" fill="none" stroke-dasharray="1.5 6"></path></g><g stroke-opacity="0.5" fill-opacity="0.5" transform="translate(381.776686890058 80.33243018118199) rotate(0 4.533616670754554 106.14944918364485)"><path d="M16.18 187.38 C11.97 195.3, 8.39 206.79, 8.5 211.17" stroke="#846358" stroke-width="2.5" fill="none" stroke-dasharray="1.5 6"></path></g></g><mask></mask><g stroke-linecap="round"><g stroke-opacity="0.5" fill-opacity="0.5" transform="translate(526.8567428002693 84.5579238097435) rotate(0 -45.75794616409689 181.95867481812508)"><path d="M-0.78 -0.17 C-15.85 60.44, -75.3 303.51, -90.37 364.14" stroke="#846358" stroke-width="2.5" fill="none" stroke-dasharray="1.5 8"></path></g><g stroke-opacity="0.5" fill-opacity="0.5" transform="translate(526.8567428002693 84.5579238097435) rotate(0 -45.75794616409689 181.95867481812508)"><path d="M-93.06 339.28 C-92.44 348.74, -90.97 354.84, -90.37 364.14" stroke="#846358" stroke-width="2.5" fill="none" stroke-dasharray="1.5 6"></path></g><g stroke-opacity="0.5" fill-opacity="0.5" transform="translate(526.8567428002693 84.5579238097435) rotate(0 -45.75794616409689 181.95867481812508)"><path d="M-76.45 343.37 C-80.88 351.48, -84.45 356.34, -90.37 364.14" stroke="#846358" stroke-width="2.5" fill="none" stroke-dasharray="1.5 6"></path></g></g><mask></mask><g stroke-linecap="round"><g stroke-opacity="0.5" fill-opacity="0.5" transform="translate(571.3062569514218 79.72554889149569) rotate(0 -29.27921676527484 99.74576917228357)"><path d="M0.78 -0.47 C-8.71 32.81, -47.9 165.53, -57.9 198.93" stroke="#846358" stroke-width="2.5" fill="none" stroke-dasharray="1.5 8"></path></g><g stroke-opacity="0.5" fill-opacity="0.5" transform="translate(571.3062569514218 79.72554889149569) rotate(0 -29.27921676527484 99.74576917228357)"><path d="M-59.41 173.97 C-60.01 180.57, -59.84 183.82, -57.9 198.93" stroke="#846358" stroke-width="2.5" fill="none" stroke-dasharray="1.5 6"></path></g><g stroke-opacity="0.5" fill-opacity="0.5" transform="translate(571.3062569514218 79.72554889149569) rotate(0 -29.27921676527484 99.74576917228357)"><path d="M-43.02 178.84 C-47.21 184.47, -50.65 186.65, -57.9 198.93" stroke="#846358" stroke-width="2.5" fill="none" stroke-dasharray="1.5 6"></path></g></g><mask></mask><g stroke-linecap="round"><g stroke-opacity="0.5" fill-opacity="0.5" transform="translate(740.4572754017015 79.1487497395695) rotate(0 -112.36952162163169 183.00999562853457)"><path d="M-0.02 0.98 C-37.65 61.94, -187.57 304.64, -225.05 365.32" stroke="#846358" stroke-width="2.5" fill="none" stroke-dasharray="1.5 8"></path></g><g stroke-opacity="0.5" fill-opacity="0.5" transform="translate(740.4572754017015 79.1487497395695) rotate(0 -112.36952162163169 183.00999562853457)"><path d="M-219.98 340.84 C-220.26 349.19, -224.9 358.29, -225.05 365.32" stroke="#846358" stroke-width="2.5" fill="none" stroke-dasharray="1.5 6"></path></g><g stroke-opacity="0.5" fill-opacity="0.5" transform="translate(740.4572754017015 79.1487497395695) rotate(0 -112.36952162163169 183.00999562853457)"><path d="M-205.43 349.83 C-210.95 354.92, -220.87 360.76, -225.05 365.32" stroke="#846358" stroke-width="2.5" fill="none" stroke-dasharray="1.5 6"></path></g></g><mask></mask><g stroke-linecap="round"><g stroke-opacity="0.5" fill-opacity="0.5" transform="translate(849.9533834597141 79.36361769210276) rotate(0 -31.21347746590891 211.08914994259965)"><path d="M0.7 0.05 C-9.71 70.45, -51.89 351.03, -62.59 421.55" stroke="#846358" stroke-width="2.5" fill="none" stroke-dasharray="1.5 8"></path></g><g stroke-opacity="0.5" fill-opacity="0.5" transform="translate(849.9533834597141 79.36361769210276) rotate(0 -31.21347746590891 211.08914994259965)"><path d="M-67.54 397.04 C-66.19 403.87, -65.88 409.5, -62.59 421.55" stroke="#846358" stroke-width="2.5" fill="none" stroke-dasharray="1.5 6"></path></g><g stroke-opacity="0.5" fill-opacity="0.5" transform="translate(849.9533834597141 79.36361769210276) rotate(0 -31.21347746590891 211.08914994259965)"><path d="M-50.63 399.6 C-54.18 405.78, -58.79 410.66, -62.59 421.55" stroke="#846358" stroke-width="2.5" fill="none" stroke-dasharray="1.5 6"></path></g></g><mask></mask><g stroke-linecap="round"><g stroke-opacity="0.5" fill-opacity="0.5" transform="translate(805.4489215246324 79.51860893413149) rotate(0 -46.5780230460831 128.58914994259962)"><path d="M0.54 -0.2 C-14.97 42.64, -76.87 214.2, -92.53 257.2" stroke="#846358" stroke-width="2.5" fill="none" stroke-dasharray="1.5 8"></path></g><g stroke-opacity="0.5" fill-opacity="0.5" transform="translate(805.4489215246324 79.51860893413149) rotate(0 -46.5780230460831 128.58914994259962)"><path d="M-92.57 232.2 C-92.86 241.93, -92.48 249.14, -92.53 257.2" stroke="#846358" stroke-width="2.5" fill="none" stroke-dasharray="1.5 6"></path></g><g stroke-opacity="0.5" fill-opacity="0.5" transform="translate(805.4489215246324 79.51860893413149) rotate(0 -46.5780230460831 128.58914994259962)"><path d="M-76.49 238.02 C-82.37 245.8, -87.58 250.99, -92.53 257.2" stroke="#846358" stroke-width="2.5" fill="none" stroke-dasharray="1.5 6"></path></g></g><mask></mask><g stroke-linecap="round"><g stroke-opacity="0.5" fill-opacity="0.5" transform="translate(617.9398197419875 79.65326092331867) rotate(0 -109.27184922913813 104.09519889664318)"><path d="M0.89 0.44 C-35.2 35.1, -180.79 172.6, -217.49 207.41" stroke="#846358" stroke-width="2.5" fill="none" stroke-dasharray="1.5 8"></path></g><g stroke-opacity="0.5" fill-opacity="0.5" transform="translate(617.9398197419875 79.65326092331867) rotate(0 -109.27184922913813 104.09519889664318)"><path d="M-206.3 185.05 C-208.1 191.76, -212.57 193.64, -217.49 207.41" stroke="#846358" stroke-width="2.5" fill="none" stroke-dasharray="1.5 6"></path></g><g stroke-opacity="0.5" fill-opacity="0.5" transform="translate(617.9398197419875 79.65326092331867) rotate(0 -109.27184922913813 104.09519889664318)"><path d="M-194.55 197.47 C-198.85 201.56, -205.88 200.74, -217.49 207.41" stroke="#846358" stroke-width="2.5" fill="none" stroke-dasharray="1.5 6"></path></g></g><mask></mask><g stroke-linecap="round"><g stroke-opacity="0.5" fill-opacity="0.5" transform="translate(780.9061767820242 78.15658733617308) rotate(0 -118.12142242523635 100.01828403366702)"><path d="M0.78 0.67 C-38.42 33.77, -196.6 165.98, -236.12 199.26" stroke="#846358" stroke-width="2.5" fill="none" stroke-dasharray="1.5 8"></path></g><g stroke-opacity="0.5" fill-opacity="0.5" transform="translate(780.9061767820242 78.15658733617308) rotate(0 -118.12142242523635 100.01828403366702)"><path d="M-223.61 177.61 C-225.22 182.82, -230.46 187.39, -236.12 199.26" stroke="#846358" stroke-width="2.5" fill="none" stroke-dasharray="1.5 6"></path></g><g stroke-opacity="0.5" fill-opacity="0.5" transform="translate(780.9061767820242 78.15658733617308) rotate(0 -118.12142242523635 100.01828403366702)"><path d="M-212.62 190.72 C-216.79 193.02, -224.53 194.62, -236.12 199.26" stroke="#846358" stroke-width="2.5" fill="none" stroke-dasharray="1.5 6"></path></g></g><mask></mask></svg>